<svg fill="none" height="24" viewBox="0 0 24 24" width="24" xmlns="http://www.w3.org/2000/svg" xmlns:xlink="http://www.w3.org/1999/xlink"><linearGradient id="paint0_linear_2543_4348" gradientUnits="userSpaceOnUse" x1="2.182" x2="25.707" y1="0" y2="19.248"><stop offset=".0833333" stop-color="#ff6a6a"/><stop offset="1" stop-color="#f72257"/></linearGradient><path d="m21 20v-12.17157c0-.53044-.2107-1.03914-.5858-1.41422l-4.8284-4.82842c-.3751-.37508-.8838-.58579-1.4142-.58579h-8.1716c-1.65685 0-3 1.34315-3 3v16c0 1.6569 1.34315 3 3 3h12c1.6569 0 3-1.3431 3-3z" fill="url(#paint0_linear_2543_4348)"/><path clip-rule="evenodd" d="m14.1716 1c.5304 0 1.0391.21071 1.4142.58579l4.8284 4.82842c.3751.37508.5858.88378.5858 1.41422v.17157h-5c-1.1046 0-2-.89543-2-2v-5zm-2.1716 10c.5523 0 1 .4477 1 1v3.5858l1.2929-1.2929c.3905-.3905 1.0237-.3905 1.4142 0s.3905 1.0237 0 1.4142l-3 3c-.3905.3905-1.0237.3905-1.4142 0l-3.00001-3c-.39052-.3905-.39052-1.0237 0-1.4142.39053-.3905 1.02369-.3905 1.41422 0l1.29289 1.2929v-3.5858c0-.5523.4477-1 1-1z" fill="#850026" fill-rule="evenodd"/></svg>