<svg id="Layer_1" enable-background="new 0 0 500 500" viewBox="0 0 500 500" xmlns="http://www.w3.org/2000/svg"><g clip-rule="evenodd" fill-rule="evenodd"><path d="m435.481 330.788c5.974 10.348 2.396 23.701-7.951 29.675l-104.756 60.481c-28.06 16.201-45.454 24.751-77.568 29.488-32.379 4.776-64.609 2.634-97.197-1.019-19.819-2.221-37.796-3.728-57.752-4.765v-98.679c34.975-4.365 61.271-6.039 97.938 3.766h73.903c16.092 0 26.928 16.474 20.847 31.134 3.691 1.163 7.365 1.77 11.017 1.775 9.92.015 14.641-3.686 22.755-8.371l89.089-51.435c10.347-5.975 23.7-2.397 29.675 7.95z" fill="#fcd4a9"/><path d="m59.229 333.129h30.657c7.203 0 13.097 5.893 13.097 13.097v104.23c0 7.203-5.894 13.097-13.097 13.097h-30.657c-7.203 0-13.097-5.893-13.097-13.097v-104.23c0-7.204 5.893-13.097 13.097-13.097z" fill="#88c8fe"/><path d="m168.466 145.607h163.065c9.7 0 17.636 7.936 17.636 17.636v104.299c0 9.7-7.936 17.636-17.636 17.636h-163.065c-9.7 0-17.636-7.936-17.636-17.636v-104.299c0-9.7 7.936-17.636 17.636-17.636z" fill="#c89d8d"/><path d="m202.775 167.645v-44.665c0-11.521 9.401-20.923 20.923-20.923h52.602c11.521 0 20.923 9.402 20.923 20.923v44.665h-13.643v-44.665c0-3.99-3.29-7.28-7.28-7.28h-52.602c-3.99 0-7.28 3.289-7.28 7.28v44.665z" fill="#cf8c48"/><path d="m168.466 145.607h163.065c9.7 0 17.636 7.936 17.636 17.636v17.388l-83.21 44.577c-10.274 5.504-21.643 5.504-31.917 0l-83.21-44.577v-17.387c0-9.701 7.936-17.637 17.636-17.637z" fill="#fcd4a9"/><path d="m134.949 69.054c-1.884-3.265-.766-7.426 2.497-9.323 3.263-1.88 7.434-.759 9.318 2.506l10.021 17.353c2.634 4.563-.693 10.231-5.901 10.231-2.36 0-4.653-1.218-5.916-3.408zm-79.899 73.086c1.884-3.271 6.053-4.386 9.318-2.5l17.356 10.019c6.028 3.482 3.519 12.726-3.417 12.726-1.159 0-2.331-.293-3.404-.908l-17.356-10.025c-3.263-1.886-4.381-6.059-2.497-9.312zm420.059 112.55c0 3.771-3.053 6.823-6.821 6.823h-20.041c-3.768 0-6.821-3.052-6.821-6.823s3.053-6.817 6.821-6.817h20.041c3.767 0 6.821 3.047 6.821 6.817zm-423.357 6.823h-20.04c-3.768 0-6.821-3.052-6.821-6.823s3.054-6.817 6.821-6.817h20.039c3.768 0 6.823 3.046 6.823 6.817.001 3.771-3.055 6.823-6.822 6.823zm364.028-102.538c-1.884-3.259-.768-7.432 2.495-9.317l17.358-10.019c3.262-1.885 7.434-.77 9.318 2.5 1.883 3.253.765 7.426-2.497 9.312l-17.356 10.025c-3.217 1.849-7.413.801-9.318-2.501zm-172.603-102.532v-20.037c0-3.777 3.055-6.823 6.823-6.823 3.765 0 6.821 3.046 6.821 6.823v20.037c0 3.765-3.056 6.823-6.821 6.823-3.768 0-6.823-3.058-6.823-6.823zm100.039 23.147 10.02-17.353c1.882-3.265 6.053-4.386 9.318-2.506 3.263 1.897 4.381 6.058 2.497 9.323l-10.021 17.359c-1.907 3.303-6.109 4.35-9.318 2.5-3.262-1.891-4.38-6.058-2.496-9.323zm-126.796 43.432c0-4.012 3.266-7.277 7.279-7.277h52.602c4.013 0 7.28 3.265 7.28 7.277v15.807h-67.161zm125.927 40.264v13.307l-79.609 42.644c-8.216 4.403-17.262 4.403-25.475 0l-79.609-42.644v-13.307c0-5.961 4.85-10.818 10.814-10.818h163.064c5.963.001 10.815 4.858 10.815 10.818zm-10.816 115.115c5.964 0 10.816-4.851 10.816-10.812v-75.517l-73.168 39.19c-12.365 6.622-25.994 6.622-38.359 0l-73.167-39.19v75.517c0 5.961 4.85 10.812 10.814 10.812zm-187.523-115.115v104.303c0 13.479 10.973 24.458 24.458 24.458h163.064c13.488 0 24.458-10.978 24.458-24.458v-104.303c0-13.479-10.971-24.458-24.458-24.458h-34.308v-15.807c0-11.536-9.385-20.923-20.922-20.923h-52.602c-11.536 0-20.922 9.386-20.922 20.923v15.807h-34.31c-13.485.001-24.458 10.979-24.458 24.458zm280.112 191.31-104.757 60.486c-27.772 16.031-44.237 24.084-75.152 28.648-32.665 4.823-65.176 2.339-95.443-1.058-13.723-1.535-26.267-2.702-38.962-3.61v-88.369c25.493-2.38 47.917-2 76.63 5.679.575.15 1.165.224 1.76.224h73.904c11.245 0 18.784 11.483 14.545 21.704-2.461 5.926-8.171 9.766-14.545 9.766h-73.904c-3.767 0-6.821 3.046-6.821 6.823 0 3.765 3.054 6.817 6.821 6.817h73.904c9.889 0 18.899-4.926 24.299-12.921 2.54.471 5.067.719 7.555.73 11.916.037 17.905-4.505 26.176-9.289l89.089-51.433c7.115-4.11 16.246-1.667 20.356 5.449 4.108 7.122 1.661 16.25-5.455 20.354zm-327.956 95.899c0 3.466-2.816 6.277-6.276 6.277h-30.657c-3.46 0-6.276-2.811-6.276-6.277v-104.222c0-3.466 2.816-6.277 6.276-6.277h30.657c3.46 0 6.276 2.811 6.276 6.277zm306.233-133.52-89.089 51.433c-8.153 4.711-12.436 8.288-22.028 7.317 2.025-17.401-11.623-32.769-29.18-32.769h-73.012c-30.596-8.07-54.368-8.369-81.479-5.759-3.308-6.432-10.005-10.841-17.72-10.841h-30.658c-10.984 0-19.918 8.932-19.918 19.917v104.222c0 10.99 8.934 19.922 19.918 19.922h30.657c10.227 0 18.674-7.754 19.79-17.686 12.221.891 24.336 2.023 37.573 3.506 32.66 3.658 65.497 5.928 98.952.988 34.391-5.075 53.16-14.841 79.982-30.332l104.757-60.486c13.631-7.863 18.317-25.354 10.447-38.988-7.87-13.628-25.361-18.318-38.992-10.444z" fill="#1e2f3f"/></g></svg>