<svg xmlns="http://www.w3.org/2000/svg" version="1.1" xmlns:xlink="http://www.w3.org/1999/xlink" width="512" height="512" x="0" y="0" viewBox="0 0 60 60" style="enable-background:new 0 0 512 512" xml:space="preserve" class=""><g><path d="m11.172 40.958 2.044 10.218A6.014 6.014 0 0 0 19.1 56h2.462a3 3 0 0 0 2.938-3.588L23.22 46H25a2.994 2.994 0 0 0 2.974-2.742l12.083 8.307A3 3 0 0 0 46 51V35.305A6.969 6.969 0 0 0 46 22.7V7a3 3 0 0 0-5.943-.565L24.689 17H12a11.993 11.993 0 0 0-.828 23.958ZM46 25a5 5 0 0 1 0 8ZM42 7a1 1 0 0 1 2 0v44a1 1 0 0 1-2 0ZM22.334 53.634a1 1 0 0 1-.773.366H19.1a4.009 4.009 0 0 1-3.922-3.216L13.22 41h6.961l2.36 11.805a1 1 0 0 1-.207.829ZM31 15.088 40 8.9v40.2l-9-6.187Zm-5 3.438 3-2.063v25.074l-3-2.063ZM26 41.9V43a1 1 0 0 1-1 1h-2.18l-.6-3h2.469ZM12 19h12v20H12a10 10 0 0 1 0-20Z" fill="#6a6a69" opacity="1" data-original="#000000"></path><path d="M6 30h3a1 1 0 0 0 0-2H6a1 1 0 0 0 0 2ZM6 26h3a1 1 0 0 0 0-2H6a1 1 0 0 0 0 2ZM6 34h3a1 1 0 0 0 0-2H6a1 1 0 0 0 0 2ZM49 22a1 1 0 0 0 .554-.168l6-4a1 1 0 1 0-1.11-1.664l-6 4A1 1 0 0 0 49 22ZM51.052 25.316a1 1 0 0 0 1.264.633l6-2a1 1 0 0 0-.632-1.9l-6 2a1 1 0 0 0-.632 1.267ZM48.168 36.445a1 1 0 0 0 .277 1.387l6 4a1 1 0 1 0 1.11-1.664l-6-4a1 1 0 0 0-1.387.277ZM58 36a1 1 0 0 0 .316-1.949l-6-2a1 1 0 0 0-.632 1.9l6 2A1 1 0 0 0 58 36ZM52 29a1 1 0 0 0 1 1h6a1 1 0 0 0 0-2h-6a1 1 0 0 0-1 1Z" fill="#6a6a69" opacity="1" data-original="#000000"></path></g></svg>