<svg xmlns="http://www.w3.org/2000/svg" version="1.1" xmlns:xlink="http://www.w3.org/1999/xlink" width="512" height="512" x="0" y="0" viewBox="0 0 64 64" style="enable-background:new 0 0 512 512" xml:space="preserve" class=""><g><path d="M63 37a2 2 0 0 1-2-2V23a6 6 0 0 0-6-6H24.265l-6.322-3.613A5.98 5.98 0 0 0 19 9.976 1 1 0 0 0 18 9h-4.977a6.574 6.574 0 0 0-1.372.118 7.332 7.332 0 0 0-4.3 2.6L5.384 14.17l-2.9 1.166A3.947 3.947 0 0 0 0 19v2.33a3.956 3.956 0 0 0 3.562 3.935l6.693.666L14 37.162v13.505L11.2 54.4A1 1 0 0 0 12 56h7a1 1 0 0 0 .987-.837L21.846 44h12.308l.368 2.2A4.507 4.507 0 0 0 38 49.878V51a1 1 0 0 0 2 0v-1h2v1a1 1 0 0 0 2 0v-1.1a4.547 4.547 0 0 0 3.551-3.554L47.82 45h2.4l1.7 6.812-1.755 2.631A1 1 0 0 0 51 56h5a1 1 0 0 0 .987-.836l2.037-12.223L57 35.86V25a7.978 7.978 0 0 0-2.725-6H55a4 4 0 0 1 4 4v12a4 4 0 0 0 4 4 1 1 0 0 0 0-2Zm-8-12v11.141l1.977 6.916L55.153 54h-2.284l.963-1.444a1 1 0 0 0 .138-.8l-2-8A1 1 0 0 0 51 43h-4a4.168 4.168 0 0 1-4.014-3.164l-1-6a1 1 0 1 0-1.972.328L41.02 40.2a6.128 6.128 0 0 0 4.787 4.672l-.217 1.086A2.576 2.576 0 0 1 43 48h-3.992a2.548 2.548 0 0 1-2.508-2.126l-.346-2.062A3.993 3.993 0 0 0 39 40a1 1 0 0 0-2 0 2 2 0 0 1-2 2H22.22l.56-2.8a1 1 0 0 0-1.961-.392l-.8 4.032L18.153 54H14l1.8-2.4a1 1 0 0 0 .2-.6V37a.993.993 0 0 0-.052-.32L12.387 26H15a2.742 2.742 0 0 1 2.286 1.227l.882 1.327a1 1 0 0 0 .385.341l2.66 1.33a1.426 1.426 0 0 1 0 2.55l-2.66 1.33a1 1 0 0 0-.448 1.342 1.04 1.04 0 0 0 1.342.448l2.521-1.261a3.57 3.57 0 0 0 1.947-2.358 3.423 3.423 0 0 0-1.808-3.84l-2.421-1.211-.742-1.117A4.718 4.718 0 0 0 15 24h-3.95l-7.285-.725A1.959 1.959 0 0 1 2 21.33V19a1.949 1.949 0 0 1 1.224-1.81l3.392-1.36 2.3-2.867a5.3 5.3 0 0 1 3.014-1.856A4.916 4.916 0 0 1 13.056 11h3.817a4.05 4.05 0 0 1-2.042 2.565 5.516 5.516 0 0 1-1.954.442A1 1 0 0 0 13 16a5.991 5.991 0 0 0 3.49-1.144c.006 0 .008.009.014.012L23 18.58V23a4 4 0 0 0 4 4h3.5l1.15 1.531A6.207 6.207 0 0 0 36.58 31H42a6.206 6.206 0 0 0 3.1-.834 1 1 0 0 0-.98-1.744 3.8 3.8 0 0 1-1.81.578h-5.73a4.193 4.193 0 0 1-3.33-1.671L31.8 25.4a1 1 0 0 0-.8-.4h-4a2 2 0 0 1-2-2v-4h22.944a17.966 17.966 0 0 1-1.634 6.574 1 1 0 1 0 1.81.85 20 20 0 0 0 1.849-7.338A6 6 0 0 1 55 25Z" fill="#ffffff" opacity="1" data-original="#000000" class=""></path></g></svg>