<svg xmlns="http://www.w3.org/2000/svg" version="1.1" xmlns:xlink="http://www.w3.org/1999/xlink" width="512" height="512" x="0" y="0" viewBox="0 0 512 512" style="enable-background:new 0 0 512 512" xml:space="preserve" class=""><g><path d="M385.557 281.092c-4.235 16.116-10.008 31.776-17.53 46.658-10.541 20.856-20.846 37.723-25.45 61.121l-1.643 11.254c-.32 2.053.809 5.305 1.227 7.443 3.394 17.372-2.078 34.099-17.085 44.399-3.212 2.205-6.724 3.946-10.105 5.872-7.049 25.876-43.002 40.741-67.797 37.687-19.38-2.388-38.509-14.841-48.107-32-1.838-3.287-2.366-5.345-5.634-7.342l-4.613-2.901c-15.918-10.642-24.142-30.59-18.064-49.283.317-.975 1.066-2.309 1.192-3.284.171-1.329-4.688-21.275-5.206-23.091-5.031-17.619-14.42-33.52-22.815-49.668-14.261-27.431-22.578-58.908-22.94-89.834-10.791 1.858-21.128 3.029-31.964.015-20.249-5.633-35.708-22.636-48.135-38.683-5.344-6.901-14.988-16.669-12.168-26.103 3.2-10.71 15.386-11.842 24.076-16.393-3.733-2.442-6.85-5.449-9.93-8.65C11.348 115.566 3.12 62.201 23.636 21.695c1.95-3.851 3.752-6.522 8.049-7.923 6.723-.35 8.136 4.007 8.73 9.483l1.062 8.55c1.239 7.73 2.801 15.613 5.441 23C60.701 93.37 92.83 115.288 132 120.672c5.602.77 15.519-.555 19.581.414l9.623-6.319c11.731-7.222 21.844-9.477 35.195-9.493l121.75.018c12.686.072 25.499 4.68 36.087 11.514 4.986 3.217 4.53 4.114 10.972 4.157 35.166.235 65.896-12.524 86.983-41.919 10.366-14.449 17.536-32.776 19.205-50.608.269-2.882.211-5.864.712-8.71.985-5.6 7.437-7.584 11.718-4.228 8.855 6.942 14.188 32.36 15.462 44.648 3.466 33.408-9.695 68.671-33.965 91.927-1.776 1.702-3.755 3.266-5.317 5.17 4.989 3.776 12.014 4.386 17.439 7.545 8.049 4.688 11.092 12.521 4.816 20.139l-4.746 5.919c-12.418 15.965-24.875 33.738-43.518 42.942-12.963 6.401-28.824 8.429-42.676 3.715-.115 14.753-2.498 29.228-5.764 43.589zm96.718-227.967-.216.414c-.816 1.624-1.197 3.679-1.797 5.41-16.464 47.525-59.935 77.614-109.517 77.805-2.862.011-9.349-1.263-10.845 1.98-3.712 8.049.454 18.133 7.046 23.305 7.304 5.533 15.493 6.726 24.388 6.71 39-.07 74.498-30.419 87.195-66.225 5.15-14.523 6.645-31.413 4.42-46.67-.099-.677-.179-2.327-.674-2.729zm-452.94-.34c-1.02 9.621-1.464 20.163-.464 29.807 4.455 42.995 41.857 81.524 85.129 85.823 10.403 1.033 22.972.211 31.411-6.684 6.042-5.099 11.429-17.651 6.028-24.445-.698-.877-18.1-.517-21.372-1.197-2.517-.523-5.171-.723-7.719-1.133-30.922-4.971-59.183-22.172-76.81-48.296-7.135-10.573-11.33-22.223-16.204-33.876zm271.187 68.23-96.008.025c-15.072.012-25.031.257-37.977 9.297 3.171 11.109 4.354 21.188-1.412 31.66-17.42 31.641-63.739 25.39-90.404 10.383-2.645-1.489-5.187-3.043-7.56-4.943-6.011 5.569-14.685 8.308-22.654 9.523 2.456 4.804 6.42 9.19 9.766 13.414 10.223 12.907 20.795 26.225 37.102 31.546 8.797 2.871 20.865 2.66 29.519-.831.103-4.828-.684-12.988 2.981-16.637 3.928-3.911 9.319-2.524 11.646 2.048l.165.32c1.057 2.153.857 5.083.856 7.43l-.049 9.045c-.217 37.363 4.652 64.322 22.366 98.635 10.726 20.777 18.921 34.226 24.532 57.101l1.264 5.804c.136.719.201 1.933.574 2.516 6.955-3.287 14.084-5.919 21.532-7.864l5.547-1.337c1.318-.264 2.721-.352 3.994-.785l-.017-41.896-2.292-27.64c-3.832-29.881-14.453-58.006-45.701-66.968-2.897-.83-5.799-1.622-8.831-1.627l-1.739.014c2.253 9.62 14.823 22.964 24.12 25.878 1.691.53 3.497.564 5.182 1.071 11.555 3.475 7.301 19.025-4.933 16.198-19.364-4.475-42.768-28.571-39.895-49.27 1.676-12.071 15.165-10.685 24.429-9.118 42.423 7.175 58.544 44.759 63.241 83.156l2.295 29.435.081 19.527.01 19.284 47.593.072c.207-1.014.077-2.229.071-3.267l-.045-29.211c.056-19.222 2.281-43.882 7.51-62.124 9.389-32.755 32.452-55.94 67.236-57.525 8.329-.379 13.007.028 15.31 9.381 4.323 17.564-17.173 39.401-31.527 46.325-4.407 2.126-11.721 5.651-16.409 2.579-3.584-2.347-5.39-7.245-2.686-10.914 3.119-4.233 10.099-4.757 14.549-7.269 5.98-3.377 19.95-15.5 20.223-23.331-2.027-1.923-8.853.239-11.133.863-34.832 9.538-43.064 45.189-45.779 76.43l-1.408 18.164.056 42.085c11.767 3.107 19.376 3.292 31.288 9.832 2.157-18.127 10.057-35.329 18.403-51.374l11.146-21.301c11.948-24.956 18.852-52.668 18.891-80.391l-.006-16.658c-.006-2.774-.256-5.859.104-8.596.959-7.276 10.088-9.163 13.905-3.097 4.481 7.12-3.452 13.832 7.974 16.982 26.419 7.283 47.026-15.667 61.503-34.145 2.927-3.736 5.801-7.876 9.133-11.251-7.895-1.925-16.679-5.233-23.425-9.939-22.353 18.553-72.976 25.794-93.405 1.029-8.556-10.372-11.05-25.604-5.08-37.791-10.664-6.624-18.175-9.89-31.015-9.955zm-52.399 270.089c-6.438.011-13.596-.508-19.931.693-11.596 2.199-21.003 2.292-32.263 8.072-18.165 9.324-12.24 30.945 2.116 40.557 12.365 8.28 28.167 7.297 42.381 7.303l23.699-.001c18.247-.023 41.435 2.216 55.425-11.858 8.017-8.066 11.831-22.883 2.761-31.637-11.991-11.573-37.228-13.12-53.775-13.131zm40.83 72.531-65.634.054c-1.499-.003-3.646-.285-5.077.068l.386.287c3.974 3.006 6.557 5.511 11.229 8.525 22.166 13.063 46.216 7.757 64.29-9.094z" fill="#ffffff" opacity="1" data-original="#000000"></path><path d="M226.149 435.489c-6.564.227-9.736-5.673-14.273-9.373-4.244-3.461-11.627-6.433-8.558-13.284 1.127-2.513 3.039-3.668 5.544-4.534 5.893-.659 9.8 2.519 14.001 6.2 5.875 5.146 16.184 17.838 3.286 20.991zM289.467 435.643l-1.767.482c-7.553 1.597-9.784-7.968-5.131-14.601 3.796-5.411 9.469-12.022 16.237-13.215 6.764-.493 12.395 4.429 9.928 10.722-1.243 3.172-8.104 6.137-10.714 8.451-3.062 2.715-4.75 6.268-8.553 8.161z" fill="#ffffff" opacity="1" data-original="#000000"></path></g></svg>