<svg clip-rule="evenodd" fill-rule="evenodd" height="300" image-rendering="optimizeQuality" shape-rendering="geometricPrecision" text-rendering="geometricPrecision" viewBox="0 0 1707 1707" width="300" xmlns="http://www.w3.org/2000/svg" version="1.1" xmlns:xlink="http://www.w3.org/1999/xlink" xmlns:svgjs="http://svgjs.dev/svgjs"><g width="100%" height="100%" transform="matrix(1,0,0,1,0,0)"><g id="Layer_x0020_1"><path d="m769 431c-1 0-3 0-4 0-82-14-148-57-186-120-37-63-43-141-16-221 3-9 13-15 23-13 82 14 148 57 186 120 37 63 43 141 16 221-3 8-11 13-19 13zm-173-311c-17 62-11 122 18 171 28 48 78 82 141 97 17-62 11-122-18-171-28-48-78-82-141-97z" fill="#012660" fill-opacity="1" data-original-color="#000000ff" stroke="none" stroke-opacity="1"/><path d="m853 1020c-11 0-20-9-20-20v-298c0-1-4-188-80-278-7-9-6-21 3-28 8-7 21-6 28 2 38 46 60 110 72 168 15-40 40-74 82-75 11-1 20 8 20 19s-8 20-19 21c-45 1-64 106-66 172v297c0 11-9 20-20 20z" fill="#012660" fill-opacity="1" data-original-color="#000000ff" stroke="none" stroke-opacity="1"/><path d="m1006 539c-24 0-48-3-73-9-9-2-16-11-15-21 6-83 42-153 101-197 59-43 138-56 218-37 10 2 16 11 16 21-7 84-42 154-102 197-40 30-91 46-145 46zm-46-44c63 11 123-1 168-34 45-34 74-87 83-151-63-11-123 1-168 35-46 33-75 86-83 150z" fill="#012660" fill-opacity="1" data-original-color="#000000ff" stroke="none" stroke-opacity="1"/><path d="m950 1257h-193c-13 0-26-7-35-18-10-11-14-26-11-40l11-64c-20-6-39-14-58-24l-37 53c-8 12-21 20-36 21-14 1-28-3-37-12l-137-137c-9-9-13-23-12-37 1-15 9-28 21-36l53-37c-10-19-18-38-24-58l-64 11c-14 3-29-1-40-11-11-9-18-22-18-35v-193c0-13 7-26 18-35s26-13 40-11l64 12c6-20 14-40 24-58l-53-37c-12-9-20-22-21-37-1-14 3-28 12-37l65-64c8-8 20-8 28 0s8 20 0 28l-64 65c-1 0-1 2-1 5 0 2 1 5 4 7l67 47c9 6 11 17 6 26-15 26-26 54-34 83-3 10-13 16-23 14l-81-14c-3-1-6 1-7 2-3 2-4 4-4 4v193c0 1 1 3 4 5 1 1 4 2 7 2l81-15c10-1 20 5 23 15 8 28 19 56 34 82 5 9 3 21-6 26l-67 48c-3 2-4 5-4 7-1 2 0 4 1 5l136 136c1 1 3 2 6 1 1 0 4-1 7-4l47-67c5-8 17-11 26-6 26 15 54 26 82 34 10 3 16 13 15 23l-15 81c0 3 1 6 2 8 2 2 4 3 5 3h193s2-1 4-3c1-2 3-5 2-8l-14-81c-2-10 4-20 14-23 29-8 57-19 83-34 9-5 20-2 26 6l47 67c2 3 5 4 7 4 3 1 5 0 5-1l137-136c0-1 1-3 1-5s-1-5-4-7l-67-47c-9-6-11-18-6-27 14-26 26-54 34-82 3-10 12-16 23-15l80 15c4 0 7-1 8-2 2-2 3-4 3-5v-193s-1-2-3-4c-1-1-4-3-8-2l-80 14c-11 2-20-4-23-14-8-29-20-57-34-83-5-9-3-20 6-26l67-47c3-2 4-5 4-7 0-3-1-5-1-5-7-8-7-21 1-29 7-7 20-7 27 0 9 9 14 23 13 37-2 15-9 28-21 37l-53 37c9 18 17 38 24 58l63-12c15-2 30 2 41 11s17 22 17 35v193c0 13-6 26-17 35-11 10-26 14-41 11l-63-11c-7 20-15 39-24 58l53 37c12 8 19 21 21 36 1 14-4 28-13 37l-136 137c-9 9-23 13-37 12-15-1-28-9-37-21l-37-53c-18 10-38 18-57 24l11 64c2 14-2 29-11 40s-22 18-35 18zm-332-906c-6 0-12-3-16-8l-7-11c-1-1-1-1-2-2-9-7-10-19-3-28 7-8 19-10 28-3 4 3 7 6 9 10l8 11c6 9 4 21-5 27-4 3-8 4-12 4z" fill="#012660" fill-opacity="1" data-original-color="#000000ff" stroke="none" stroke-opacity="1"/><path d="m853 1020c-156 0-282-127-282-283 0-99 50-189 134-241 10-6 22-3 28 6 6 10 3 22-7 28-72 44-115 122-115 207 0 134 108 243 242 243s243-109 243-243c0-52-16-102-47-143-6-9-4-22 5-28 9-7 21-5 28 4 35 49 54 106 54 167 0 156-127 283-283 283z" fill="#012660" fill-opacity="1" data-original-color="#000000ff" stroke="none" stroke-opacity="1"/><path d="m1528 757h-175c-11 0-20-9-20-20s9-20 20-20h175c12 0 20 9 20 20s-8 20-20 20z" fill="#012660" fill-opacity="1" data-original-color="#000000ff" stroke="none" stroke-opacity="1"/><path d="m1354 1250c-5 0-10-2-14-6l-143-144c-8-7-8-20 0-28s20-8 28 0l144 144c7 7 7 20 0 28-4 4-9 6-15 6z" fill="#012660" fill-opacity="1" data-original-color="#000000ff" stroke="none" stroke-opacity="1"/><path d="m853 1472c-11 0-20-9-20-20v-215c0-11 9-20 20-20s20 9 20 20v215c0 11-9 20-20 20z" fill="#012660" fill-opacity="1" data-original-color="#000000ff" stroke="none" stroke-opacity="1"/><path d="m356 1254c-5 0-10-2-14-6-8-8-8-21 0-28l144-144c8-8 20-8 28 0s8 21 0 28l-144 144c-4 4-9 6-14 6z" fill="#012660" fill-opacity="1" data-original-color="#000000ff" stroke="none" stroke-opacity="1"/><path d="m353 757h-175c-11 0-20-9-20-20s9-20 20-20h175c11 0 20 9 20 20s-9 20-20 20z" fill="#012660" fill-opacity="1" data-original-color="#000000ff" stroke="none" stroke-opacity="1"/><path d="m99 836c-55 0-99-45-99-99 0-55 44-99 99-99s99 44 99 99c0 54-44 99-99 99zm0-158c-32 0-59 26-59 59 0 32 27 59 59 59 33 0 59-27 59-59 0-33-26-59-59-59z" fill="#012660" fill-opacity="1" data-original-color="#000000ff" stroke="none" stroke-opacity="1"/><path d="m1607 836c-50 0-93-39-98-89-3-27 5-52 22-73 16-20 40-33 66-36 55-6 103 34 109 88 3 27-5 52-22 73-16 20-40 33-66 36-4 0-7 1-11 1zm1-159c-2 0-4 1-7 1-15 1-29 9-39 21-10 13-15 28-13 44 3 32 32 56 65 52 15-1 29-9 39-21 10-13 15-28 13-44-3-30-28-53-58-53z" fill="#012660" fill-opacity="1" data-original-color="#000000ff" stroke="none" stroke-opacity="1"/><path d="m1414 1380c-22 0-44-7-62-22-21-16-33-40-36-66-3-27 5-53 21-73 19-23 47-37 77-37 23 0 45 8 63 22 42 35 49 97 14 140-19 23-47 36-77 36zm0-158c-17 0-34 8-45 22-10 12-15 28-13 43 1 16 9 30 21 40 11 9 24 13 37 13 18 0 35-8 46-21 21-26 17-63-8-84-11-8-24-13-38-13z" fill="#012660" fill-opacity="1" data-original-color="#000000ff" stroke="none" stroke-opacity="1"/><path d="m853 1630c-51 0-95-41-99-92-1-27 7-52 25-72 17-20 41-32 67-34 55-4 102 38 106 92s-37 102-92 106c-2 0-4 0-7 0zm0-158c-1 0-2 0-4 0-16 1-30 8-40 20-11 12-16 27-15 43 3 32 31 57 64 55 32-3 57-31 54-63-2-31-28-55-59-55z" fill="#012660" fill-opacity="1" data-original-color="#000000ff" stroke="none" stroke-opacity="1"/><path d="m301 1390c-26 0-50-10-69-28-39-38-40-100-2-140 19-19 44-30 71-30 26 0 51 10 69 28 19 18 30 43 30 69 1 27-9 52-27 71-19 19-45 30-72 30zm0-158c-16 0-31 6-42 18-23 24-22 61 1 84 11 10 26 16 41 16 16 0 32-6 43-18 11-11 17-26 16-42 0-16-6-30-18-41-11-11-25-17-41-17z" fill="#012660" fill-opacity="1" data-original-color="#000000ff" stroke="none" stroke-opacity="1"/></g></g></svg>