<svg width="35" height="35" viewBox="0 0 35 35" fill="none" xmlns="http://www.w3.org/2000/svg">
<g clip-path="url(#clip0_3888_28565)">
<path d="M33.3292 24.4919C33.349 24.574 33.3691 24.6515 33.3889 24.7215C33.4787 25.0391 33.3005 25.3704 32.9837 25.4636L32.9818 25.4641C32.6666 25.5568 32.3308 25.3795 32.2401 25.064C32.2 24.9245 32.1664 24.7833 32.1375 24.641C31.7498 24.9067 31.3556 25.4274 31.5734 26.4198C31.5734 26.4198 31.6704 26.935 31.6038 27.28C31.5901 27.3513 31.6661 27.4056 31.7301 27.3712L31.9923 27.2304C32.0518 27.1986 32.1241 27.2434 32.1203 27.3107C32.1035 27.6031 32.1248 28.2435 32.5588 28.7149C32.8487 29.0299 32.9094 29.2797 32.8978 29.4507C32.8926 29.5273 32.9861 29.5691 33.0441 29.5188C33.4559 29.162 34.2416 28.3612 34.169 27.4999C34.1642 27.4434 34.2109 27.3965 34.2666 27.406L34.4741 27.441C34.5199 27.4486 34.5636 27.4195 34.5733 27.3741C34.6633 26.9533 34.9825 25.0055 33.3292 24.4919Z" fill="#52565B"/>
<path d="M10.5535 4.78767C10.2597 4.79806 9.96755 4.72752 9.71079 4.58437C7.20583 3.1867 1.9721 6.53658 2.99639 10.4656C3.16948 11.1294 3.47136 11.6526 3.84282 12.0673C3.84419 12.0634 3.84487 12.0596 3.84624 12.0558C4.23247 10.9865 5.34221 10.3208 6.46796 10.4802C7.16796 10.5794 7.74313 10.9579 8.11364 11.4787C8.27784 11.7095 8.5793 11.7822 8.83073 11.6518C9.39784 11.3573 10.0824 11.2828 10.7505 11.5137C11.825 11.8852 12.509 12.9838 12.3652 14.1115C12.3646 14.1154 12.3635 14.1193 12.363 14.1232C12.8827 13.9235 13.3899 13.5956 13.8467 13.0838C16.5501 10.0544 13.4201 4.68623 10.5535 4.78767Z" fill="#E3E4E5"/>
<path d="M30.0742 24.4567C30.0282 24.1649 30.0659 23.8654 30.1835 23.5944C32.1855 18.9792 31.6089 15.8271 31.1722 14.4974C30.9855 13.9288 30.6664 13.4068 30.211 13.0185C28.4908 11.5517 25.6052 12.2472 19.9229 12.8392C17.6201 13.079 15.8623 12.6382 14.5517 11.9695C14.3862 12.3635 14.1547 12.7389 13.847 13.0839C13.3902 13.5958 12.8829 13.9236 12.3633 14.1234C12.1701 15.5825 10.7691 16.5165 9.3768 16.1806C9.2759 16.1562 9.17924 16.1238 9.08463 16.088C8.59463 16.8021 7.85689 17.1954 7.15307 17.0256C7.14076 17.0226 7.129 17.0182 7.1167 17.015C7.2109 18.2766 7.24904 19.6283 7.54353 21.1597C8.10107 24.059 10.6807 24.9363 11.5703 25.1552C11.7631 25.2026 11.9117 25.354 11.9559 25.5476C12.43 27.6212 12.2345 30.518 12.1645 31.3473C12.1529 31.4846 12.0689 31.6042 11.9462 31.6666C11.182 32.0547 10.9232 32.7186 10.8356 33.124C10.7969 33.3031 10.9369 33.4714 11.1202 33.4714H14.5036C14.632 33.4714 14.7477 33.3873 14.7822 33.2637C14.9914 32.5174 14.7527 31.9944 14.6358 31.7982C14.5974 31.7337 14.5702 31.6629 14.5598 31.5885C14.4898 31.0911 14.2854 29.2064 14.9847 27.9244C15.5486 26.8908 15.6555 25.9877 15.6682 25.5324C15.6727 25.3702 15.8224 25.2547 15.9814 25.2864C20.1259 26.1111 23.7439 24.7609 25.1016 24.1458C25.3916 24.0144 25.7318 24.1498 25.8517 24.4447C26.2931 25.5302 27.1981 26.225 27.6706 26.5292C27.8583 26.6501 27.9543 26.8726 27.9198 27.0932C27.6685 28.7021 27.0655 30.1867 26.7778 30.8322C26.6906 31.0278 26.5377 31.1894 26.3407 31.2733C25.3752 31.685 25.0397 32.4956 24.9232 33.009C24.8695 33.2458 25.0464 33.4715 25.2891 33.4715H28.7977C28.9659 33.4715 29.1186 33.3688 29.1791 33.212C29.3867 32.6755 29.2747 32.207 29.1692 31.9422C29.1005 31.7699 29.0899 31.581 29.137 31.4016L30.3247 26.8886C30.3798 26.6795 30.3907 26.4613 30.357 26.2476L30.0742 24.4567Z" fill="#E3E4E5"/>
<path d="M10.8432 33.2678C10.8364 33.246 10.8319 33.2236 10.8305 33.2004C10.8303 33.197 10.8292 33.1937 10.8292 33.1903C10.8286 33.1685 10.8307 33.1462 10.8356 33.1239C10.9232 32.7186 11.1822 32.0547 11.9462 31.6665C12.0691 31.6042 12.153 31.4846 12.1645 31.3473C12.2345 30.5179 12.43 27.621 11.9559 25.5475C11.9116 25.3541 11.763 25.2026 11.5703 25.1552C11.1741 25.0577 10.4425 24.8289 9.70383 24.3496C9.76986 25.1617 10.5081 26.9304 10.1352 31.3473C10.1236 31.4846 10.0396 31.6042 9.91684 31.6665C9.15272 32.0547 8.89391 32.7186 8.80627 33.1239C8.76758 33.303 8.90758 33.4713 9.09092 33.4713H11.1202C10.9882 33.4712 10.8797 33.3834 10.8432 33.2678Z" fill="#E3E4E5"/>
<path d="M27.6703 26.5291C27.5714 26.4655 27.453 26.3838 27.3245 26.2859L27.3246 26.286C27.0014 26.9453 26.4462 27.4689 25.7662 27.7544C25.4768 29.0981 24.9958 30.2763 24.748 30.8321C24.6608 31.0277 24.508 31.1893 24.311 31.2733C23.3454 31.6849 23.0099 32.4955 22.8935 33.0089C22.8397 33.2457 23.0166 33.4714 23.2593 33.4714H25.2888C25.046 33.4714 24.8692 33.2457 24.9229 33.0089C25.0394 32.4954 25.3749 31.6849 26.3404 31.2733C26.5374 31.1893 26.6904 31.0277 26.7775 30.8321C27.0652 30.1866 27.6682 28.702 27.9195 27.0931C27.954 26.8725 27.858 26.6498 27.6703 26.5291Z" fill="#E3E4E5"/>
<path d="M29.1788 33.2121C29.3863 32.6756 29.2744 32.207 29.1688 31.9422C29.1445 31.8811 29.1301 31.8177 29.1203 31.7537C27.9909 31.8278 26.928 31.2898 26.5932 31.1006C26.5207 31.173 26.436 31.2327 26.3403 31.2735C25.3747 31.6852 25.0392 32.4958 24.9228 33.0092C24.869 33.246 25.0459 33.4717 25.2886 33.4717H28.7972C28.9654 33.4714 29.1182 33.3688 29.1788 33.2121Z" fill="#52565B"/>
<path d="M14.7817 33.2636C14.9909 32.5173 14.7522 31.9943 14.6353 31.7981C14.623 31.7775 14.6141 31.7553 14.6044 31.7336C13.5856 31.9317 12.5587 31.6181 12.1347 31.4607C12.0986 31.5483 12.0327 31.6222 11.9456 31.6663C11.1815 32.0545 10.9227 32.7184 10.8351 33.1237C10.7964 33.3028 10.9364 33.4711 11.1197 33.4711H14.5031C14.6315 33.4713 14.747 33.3872 14.7817 33.2636Z" fill="#52565B"/>
<path d="M24.9228 33.0089C25.0133 32.6103 25.2372 32.0333 25.7841 31.6021C25.2145 31.445 24.7617 31.212 24.5639 31.1003C24.4914 31.1728 24.4067 31.2324 24.311 31.2733C23.3454 31.685 23.0099 32.4956 22.8935 33.0089C22.8397 33.2457 23.0166 33.4715 23.2593 33.4715H25.2888C25.0458 33.4713 24.869 33.2456 24.9228 33.0089Z" fill="#52565B"/>
<path d="M10.8351 33.1239C10.9138 32.7598 11.1321 32.1875 11.7294 31.7933C11.0277 31.7671 10.4103 31.574 10.1054 31.4607C10.0693 31.5483 10.0034 31.6222 9.91635 31.6663C9.15223 32.0545 8.89342 32.7184 8.80578 33.1237C8.76709 33.3028 8.90709 33.4711 9.09043 33.4711H11.1197C10.9364 33.4713 10.7963 33.303 10.8351 33.1239Z" fill="#52565B"/>
<path d="M12.1786 14.7827C11.7165 15.8487 10.5447 16.4623 9.37658 16.1805C9.27568 16.1562 9.17902 16.1238 9.08441 16.088C8.59441 16.8021 7.85668 17.1954 7.15285 17.0256C7.14041 17.0226 7.12852 17.0182 7.11621 17.0149C7.21055 18.2767 7.24883 19.6283 7.54332 21.1598C7.56766 21.2862 7.59705 21.4073 7.62863 21.526C7.7752 21.5514 7.92518 21.5653 8.07775 21.5656C9.62418 21.5692 10.7954 20.3354 10.8567 18.9135C10.8831 18.3001 11.2217 17.7461 11.747 17.4281C12.6029 16.9098 13.1001 15.9473 12.6921 15.2406C12.5695 15.028 12.39 14.8795 12.1786 14.7827Z" fill="#52565B"/>
<path d="M19.914 16.5533C20.1635 17.1528 20.7548 17.5743 21.4447 17.5743C22.403 17.5743 23.1034 16.7869 23.1034 15.9153C23.1034 15.562 23.3333 15.2584 23.6664 15.1408C24.5988 14.8115 25.2552 13.8991 25.1953 12.8407C25.184 12.6405 25.1451 12.4466 25.0843 12.2622C23.6801 12.3959 21.9867 12.6241 19.9226 12.8392C18.8918 12.9465 17.9704 12.9172 17.1491 12.7924C17.1178 12.9313 17.0947 13.0732 17.0862 13.2191C17.0049 14.6155 17.988 15.8118 19.3149 16.0448C19.59 16.0929 19.8065 16.2953 19.914 16.5533Z" fill="#52565B"/>
<path d="M31.4488 15.621C30.7348 15.5549 30.1027 15.9322 29.7952 16.5098C29.6918 16.704 29.4895 16.8242 29.2706 16.846C27.9966 16.9733 27.0254 18.0498 27.0254 19.3334C27.0254 20.4486 27.7553 21.3918 28.7634 21.7149C28.9969 21.7896 29.1682 21.996 29.2055 22.2382C29.291 22.7938 29.7376 23.2353 30.3023 23.3116C31.7468 19.8421 31.7296 17.2252 31.4488 15.621Z" fill="#52565B"/>
<path d="M20.1004 19.9642C19.6179 19.8909 19.2135 19.5763 18.9574 19.1608C18.6944 18.7343 18.2221 18.4539 17.6904 18.4539C16.6479 18.4539 15.9702 19.479 16.2746 20.4013C16.3402 20.6002 16.3455 20.8179 16.2502 21.0043C16.1332 21.2338 16.0669 21.4933 16.0669 21.7686C16.0669 22.7512 16.8988 23.5153 17.8544 23.4564C18.0664 23.4433 18.275 23.5051 18.4373 23.6422C18.8454 23.9869 19.3864 24.1788 19.9732 24.1282C21.006 24.0391 21.8323 23.1801 21.882 22.1447C21.9361 21.0153 21.1147 20.1181 20.1004 19.9642Z" fill="#52565B"/>
<path d="M8.20645 9.98316C8.63588 8.20363 7.70783 6.45294 6.13352 6.07314C5.43324 5.90415 4.72326 6.03554 4.11268 6.38937C3.14649 7.49706 2.59797 8.9374 2.99637 10.4656C3.16946 11.1294 3.47133 11.6526 3.8428 12.0673C3.84416 12.0635 3.84485 12.0596 3.84621 12.0558C4.23244 10.9865 5.34219 10.3209 6.46793 10.4803C6.96955 10.5514 7.40555 10.7675 7.74953 11.0751C7.9527 10.75 8.10992 10.3831 8.20645 9.98316Z" fill="#52565B"/>
<path d="M19.2058 7.73194C18.1351 6.85803 16.891 6.85434 15.9869 7.40696C15.4724 7.72141 14.8206 7.81055 14.3174 7.8245C14.6403 8.5301 14.8438 9.29942 14.8756 10.0655C17.2619 11.0342 18.8026 9.04745 19.2971 8.26596C19.4078 8.09083 19.3663 7.86292 19.2058 7.73194Z" fill="#F98080"/>
<path d="M3.46476 7.29743C3.47063 7.28718 3.47638 7.27679 3.48226 7.26653C3.52409 7.19421 3.56757 7.12284 3.61296 7.05243C3.61733 7.04559 3.62198 7.03876 3.62649 7.03192C3.67038 6.96438 3.71591 6.89766 3.76294 6.8319C3.76718 6.82589 3.77128 6.81987 3.77565 6.81386C3.82542 6.74495 3.87683 6.67714 3.9296 6.61028C3.93602 6.60222 3.94259 6.59415 3.94901 6.58608C4.24952 6.21024 4.59802 5.86872 4.97645 5.56999C4.53499 5.32813 3.9955 4.95147 3.68104 4.437C3.12843 3.53288 2.0195 2.96878 0.668173 3.25821C0.465556 3.30155 0.324736 3.48544 0.343466 3.69175C0.427138 4.61268 0.892256 7.08347 3.45765 7.3096C3.45997 7.30577 3.46229 7.30153 3.46476 7.29743Z" fill="#F98080"/>
<path d="M14.3178 7.82438C14.8211 7.81043 15.4728 7.72129 15.9873 7.40684C16.1568 7.3032 16.3383 7.21912 16.5283 7.15678C16.5487 7.15008 16.5696 7.14529 16.5901 7.13914C17.0976 6.57354 17.2208 5.77906 17.1859 5.03162C17.1639 4.56172 16.567 4.39451 16.2997 4.7817C15.5933 5.80531 14.2213 6.17035 13.3521 6.30064C13.7314 6.7458 14.0618 7.26506 14.3178 7.82438Z" fill="#F4DBCE"/>
<path d="M3.68084 4.43745C3.99529 4.95192 4.53465 5.32845 4.97625 5.57044C5.45859 5.18981 5.98879 4.87851 6.52883 4.65538C5.81461 4.14337 4.75832 3.19208 4.59617 1.95778C4.53492 1.4913 3.92734 1.36784 3.69355 1.77608C3.32222 2.4244 3.0697 3.18634 3.26179 3.91997C3.42353 4.0746 3.56504 4.24796 3.68084 4.43745Z" fill="#F4DBCE"/>
<path d="M33.2494 21.2949C33.5695 19.3748 35.6192 13.9259 30.5864 13.4075C30.8463 13.7289 31.0422 14.1012 31.1723 14.4974C31.2119 14.6183 31.2528 14.7547 31.2927 14.9054C31.9913 15.1457 32.6405 15.7213 32.6405 17.0331C32.6405 19.6711 31.5324 22.6007 32.2403 25.0638C32.3311 25.3795 32.6669 25.5567 32.982 25.464L32.9839 25.4635C33.3007 25.3704 33.479 25.0391 33.3892 24.7214C33.2028 24.0625 32.9884 22.8603 33.2494 21.2949Z" fill="#E3E4E5"/>
<path d="M19.2058 7.73194C18.1351 6.85803 16.891 6.85434 15.9869 7.40696C15.4724 7.72141 14.8206 7.81055 14.3174 7.8245C14.4791 8.17792 14.6115 8.54719 14.7068 8.92427C15.1741 8.92987 15.7101 8.80956 16.2908 8.4545C17.5524 7.68341 18.6987 7.86593 19.3553 8.09356C19.3693 7.95971 19.3169 7.82259 19.2058 7.73194Z" fill="#E3E4E5"/>
<path d="M4.97644 5.57023C4.53498 5.32838 3.99549 4.95172 3.68103 4.43724C3.12842 3.53312 2.01949 2.96902 0.668164 3.25846C0.527891 3.28853 0.418652 3.38656 0.370117 3.51207C1.05836 3.609 2.16168 3.96926 2.93291 5.2309C3.28783 5.81168 3.71002 6.16318 4.12838 6.3714C4.38514 6.07937 4.67129 5.81099 4.97644 5.57023Z" fill="#E3E4E5"/>
<path d="M7.99785 15.2324C7.83516 15.0031 7.53465 14.9306 7.28527 15.0604C6.85857 15.2827 6.36516 15.3786 5.8623 15.3152C5.974 16.1719 6.45074 16.856 7.1532 17.0256C7.85826 17.1956 8.5975 16.8007 9.0875 16.0842C8.63838 15.9073 8.26432 15.6078 7.99785 15.2324Z" fill="#E3E4E5"/>
<path d="M7.99139 15.2306C7.82869 15.0014 7.52818 14.9289 7.27881 15.0587C7.05322 15.1761 6.80863 15.2572 6.5542 15.2991C6.74615 15.7163 7.02369 15.9978 7.37383 16.0823C7.73107 16.1685 8.1143 16.0373 8.48207 15.7414C8.29326 15.5953 8.12797 15.4231 7.99139 15.2306Z" fill="#FD605B"/>
<path d="M27.3247 26.2861C26.8389 25.9162 26.2005 25.3032 25.8513 24.4446C25.7314 24.1497 25.3912 24.0143 25.1012 24.1457C24.419 24.4549 23.1657 24.9494 21.562 25.2605C21.7186 26.7949 23.0145 27.992 24.5902 27.992C25.7913 27.9919 26.8295 27.2963 27.3247 26.2861Z" fill="#FD605B"/>
<path d="M12.3656 14.1115C12.5094 12.9837 11.8254 11.8852 10.7509 11.5137C10.0828 11.2827 9.39822 11.3573 8.83111 11.6518C8.57969 11.7824 8.27822 11.7097 8.11402 11.4787C7.74365 10.958 7.16848 10.5794 6.46834 10.4803C5.3426 10.3209 4.23285 10.9866 3.84662 12.0558C3.34446 13.4458 4.16668 14.9232 5.56285 15.2601C6.1569 15.4034 6.75162 15.3144 7.25393 15.0528C7.5033 14.923 7.80381 14.9956 7.96651 15.2248C8.29422 15.6868 8.78299 16.0372 9.3769 16.1805C10.7731 16.5174 12.1785 15.5776 12.3656 14.1115Z" fill="#F98080"/>
<path d="M28.7978 33.8131H25.2892C25.07 33.8131 24.8661 33.7149 24.7293 33.5439C24.5918 33.3716 24.5409 33.1491 24.5899 32.9332C24.7105 32.4018 25.081 31.4387 26.2067 30.9588C26.3186 30.9111 26.4106 30.8166 26.4658 30.6929C26.7185 30.1259 27.3333 28.635 27.5824 27.0403C27.5963 26.9511 27.5585 26.8633 27.4857 26.8165C26.9605 26.4784 26.0083 25.7373 25.5352 24.5734C25.5126 24.5177 25.4697 24.4751 25.4142 24.4529C25.3585 24.4308 25.2977 24.4323 25.2429 24.4572C23.8601 25.0836 20.2059 26.4452 16.0061 25.6395C15.9803 26.145 15.8463 27.0589 15.2849 28.0881C14.6247 29.2984 14.8472 31.1768 14.8984 31.541C14.9021 31.5671 14.9127 31.5948 14.9296 31.6231C15.0662 31.8524 15.357 32.48 15.1116 33.3561C15.0361 33.6253 14.7863 33.8134 14.5039 33.8134H11.1202C10.9276 33.8134 10.7478 33.7274 10.6268 33.5773C10.5072 33.4288 10.4615 33.2372 10.5016 33.0517C10.5955 32.6178 10.8878 31.821 11.7914 31.3619C11.8101 31.3524 11.8225 31.3359 11.8239 31.3188C11.8935 30.4938 12.0849 27.6453 11.6228 25.6238C11.6074 25.556 11.5559 25.5036 11.4887 25.4871C10.6365 25.2775 7.80917 24.3507 7.20788 21.2244C6.96876 19.981 6.89739 18.8788 6.82835 17.8126C6.81139 17.5511 6.79471 17.2941 6.77585 17.0406C6.76764 16.9301 6.81331 16.8225 6.89862 16.752C6.98393 16.6813 7.09796 16.6563 7.20501 16.685L7.2344 16.6936C7.77335 16.8237 8.37505 16.5178 8.8027 15.8946C8.89184 15.7647 9.05837 15.7126 9.20575 15.7684C9.30131 15.8046 9.38102 15.8301 9.45676 15.8483C10.0325 15.987 10.6432 15.8745 11.132 15.5393C11.6277 15.1993 11.9446 14.6804 12.0242 14.0784C12.0406 13.9543 12.1236 13.8492 12.2405 13.8043C12.7509 13.6081 13.2056 13.2892 13.5918 12.8563C13.8632 12.5522 14.08 12.2094 14.2365 11.8371C14.2732 11.7494 14.3449 11.6811 14.4341 11.6484C14.5237 11.6159 14.6223 11.6219 14.7069 11.6649C16.1907 12.422 17.9336 12.7025 19.8873 12.4992C20.8845 12.3953 21.8123 12.2862 22.6308 12.1899C26.6739 11.7147 28.9015 11.4528 30.4326 12.7584C30.9126 13.1678 31.2805 13.7323 31.4968 14.3908C31.9877 15.8861 32.5108 19.0878 30.497 23.7305C30.4051 23.9423 30.3757 24.1748 30.4116 24.4034L30.6944 26.1942C30.7358 26.4561 30.7225 26.719 30.655 26.9755L29.4673 31.4885C29.4383 31.5985 29.4449 31.7116 29.4865 31.8156C29.5999 32.1004 29.7524 32.6767 29.4977 33.3353C29.3875 33.6211 29.106 33.8131 28.7978 33.8131ZM25.3331 23.7532C25.446 23.7532 25.559 23.7748 25.6674 23.818C25.8971 23.9096 26.0751 24.0865 26.1683 24.3159C26.5707 25.3056 27.3982 25.9474 27.8557 26.2418C28.1555 26.4348 28.3133 26.7897 28.2576 27.1459C28.0053 28.7613 27.4178 30.2361 27.0899 30.9713C26.9643 31.2532 26.7458 31.4721 26.4747 31.5877C25.6708 31.9303 25.3685 32.5908 25.2564 33.0845C25.2535 33.097 25.256 33.108 25.2634 33.1175C25.2731 33.1296 25.2847 33.1296 25.2891 33.1296H28.7977C28.8253 33.1296 28.8511 33.1127 28.8604 33.0886C29.0223 32.67 28.9451 32.3029 28.8517 32.0687C28.7557 31.8277 28.7401 31.5669 28.8066 31.3144L29.9942 26.8016C30.0374 26.6371 30.0459 26.4687 30.0195 26.3008L29.7368 24.5102C29.6803 24.1532 29.7266 23.7896 29.8701 23.4586C31.794 19.0234 31.3084 16.0073 30.8476 14.6041C30.6706 14.0648 30.3738 13.6065 29.9895 13.2786C28.6853 12.1666 26.5633 12.4159 22.711 12.8689C21.8904 12.9654 20.9603 13.0746 19.9584 13.1791C18.0077 13.3824 16.2451 13.1295 14.7139 12.4276C14.5482 12.745 14.3432 13.0413 14.1021 13.3114C13.6889 13.7745 13.2074 14.1289 12.6686 14.3669C12.5232 15.0714 12.1117 15.6964 11.5189 16.103C10.8706 16.5477 10.0607 16.6971 9.29667 16.5127C9.26823 16.5059 9.23965 16.4984 9.21053 16.4902C8.7327 17.0785 8.11008 17.4066 7.48692 17.407C7.49499 17.5266 7.50278 17.6469 7.51057 17.7685C7.57825 18.8134 7.64825 19.8939 7.8793 21.0953C8.3894 23.7479 10.6876 24.5861 11.6521 24.8233C11.9717 24.902 12.2157 25.1503 12.2892 25.4715C12.7734 27.5893 12.5768 30.5265 12.5052 31.3762C12.4837 31.6313 12.3326 31.8539 12.1009 31.9715C11.5171 32.268 11.2802 32.7523 11.1852 33.1298H14.4642C14.6183 32.5314 14.4314 32.1231 14.3421 31.9733C14.2784 31.8665 14.2378 31.7532 14.2213 31.6364C14.1418 31.072 13.9405 29.125 14.6846 27.7608C15.2159 26.7869 15.3148 25.9407 15.3265 25.523C15.3314 25.3461 15.4135 25.1815 15.5515 25.0713C15.691 24.96 15.8717 24.9161 16.048 24.9513C20.0916 25.7561 23.6277 24.4384 24.9604 23.8345C25.08 23.7803 25.2065 23.7532 25.3331 23.7532Z" fill="black"/>
<path d="M24.5903 28.3335C22.8469 28.3335 21.3988 27.0272 21.222 25.295C21.2041 25.119 21.3233 24.9584 21.4969 24.9247C23.1039 24.613 24.3567 24.1076 24.9603 23.8341C25.186 23.7319 25.437 23.726 25.667 23.8177C25.8967 23.9093 26.0747 24.0862 26.1679 24.3156C26.4892 25.1059 27.087 25.6753 27.5317 26.0138C27.6616 26.1127 27.7034 26.2897 27.6315 26.4363C27.058 27.6066 25.8926 28.3335 24.5903 28.3335ZM21.9504 25.5298C22.2173 26.7577 23.3029 27.6499 24.5903 27.6499C25.5387 27.6499 26.3961 27.1668 26.8869 26.3726C26.4128 25.9717 25.8598 25.3723 25.5348 24.5732C25.5122 24.5176 25.4693 24.4749 25.4138 24.4528C25.3581 24.4306 25.2973 24.4321 25.2425 24.457C24.5247 24.7821 23.3888 25.2217 21.9504 25.5298Z" fill="black"/>
<path d="M26.4171 28.3337C26.2918 28.3337 26.171 28.2645 26.1112 28.1447L25.9083 27.7389C25.8238 27.5701 25.8923 27.3647 26.0611 27.2804C26.23 27.1958 26.4353 27.2644 26.5197 27.4332L26.7226 27.839C26.8071 28.0079 26.7386 28.2132 26.5697 28.2976C26.5206 28.3221 26.4685 28.3337 26.4171 28.3337Z" fill="black"/>
<path d="M24.5997 28.7874C24.4142 28.7874 24.262 28.6391 24.258 28.4527L24.2486 27.999C24.2446 27.8103 24.3945 27.6541 24.5833 27.6502C24.7713 27.6474 24.9281 27.7961 24.9321 27.9849L24.9415 28.4386C24.9455 28.6273 24.7956 28.7834 24.6068 28.7874C24.6045 28.7874 24.602 28.7874 24.5997 28.7874Z" fill="black"/>
<path d="M22.7444 28.3234C22.6877 28.3234 22.6304 28.3092 22.5774 28.2795C22.4128 28.1871 22.3542 27.9787 22.4467 27.8141L22.6949 27.372C22.7874 27.2074 22.9957 27.149 23.1603 27.2413C23.3249 27.3337 23.3835 27.5421 23.291 27.7067L23.0428 28.1488C22.9801 28.2607 22.8639 28.3234 22.7444 28.3234Z" fill="black"/>
<path d="M21.476 26.9069C21.3487 26.9069 21.2266 26.8355 21.1677 26.7131C21.0858 26.5431 21.1574 26.3388 21.3275 26.2571L21.747 26.0553C21.9172 25.9736 22.1213 26.045 22.203 26.2151C22.2849 26.3852 22.2133 26.5894 22.0432 26.6712L21.6238 26.873C21.5761 26.8959 21.5256 26.9069 21.476 26.9069Z" fill="black"/>
<path d="M28.7974 33.8131H25.2888C25.0696 33.8131 24.8657 33.7149 24.7289 33.5439C24.5914 33.3716 24.5405 33.1491 24.5895 32.9332C24.7101 32.4018 25.0806 31.4387 26.2063 30.9588C26.2584 30.9365 26.3074 30.9029 26.3515 30.8587C26.4601 30.7502 26.6277 30.7272 26.7615 30.8027C27.0454 30.9631 28.052 31.4805 29.0982 31.4123C29.2754 31.4022 29.4318 31.5266 29.4585 31.702C29.4657 31.7495 29.4746 31.7856 29.4866 31.8156C29.6001 32.1004 29.7525 32.6766 29.4978 33.3351C29.3871 33.6212 29.1056 33.8131 28.7974 33.8131ZM26.6286 31.5071C26.5793 31.538 26.5279 31.5649 26.4746 31.5876C25.6707 31.9303 25.3682 32.5908 25.2561 33.0845C25.2533 33.097 25.2557 33.108 25.2631 33.1175C25.2728 33.1296 25.2844 33.1296 25.2888 33.1296H28.7974C28.825 33.1296 28.8509 33.1127 28.8602 33.0886C29.0145 32.6895 28.9514 32.3371 28.8643 32.1022C27.9335 32.0926 27.0935 31.744 26.6286 31.5071Z" fill="black"/>
<path d="M14.5037 33.8129H11.1202C10.9275 33.8129 10.7477 33.7269 10.6267 33.5768C10.5071 33.4283 10.4614 33.2368 10.5015 33.0513C10.5954 32.6173 10.8877 31.8205 11.7913 31.3614C11.808 31.3529 11.8159 31.3385 11.8192 31.3305C11.8892 31.16 12.0816 31.0761 12.2542 31.1401C12.6273 31.2786 13.5969 31.5814 14.5398 31.3979C14.6962 31.3676 14.852 31.4488 14.917 31.5937L14.9316 31.6268C15.066 31.8521 15.3568 32.4795 15.1112 33.3557C15.0359 33.6249 14.786 33.8129 14.5037 33.8129ZM11.1852 33.1293H14.4643C14.5843 32.6633 14.4975 32.3127 14.4111 32.1095C13.5574 32.2125 12.7355 32.0166 12.2577 31.8641C12.2105 31.9061 12.1578 31.9422 12.1008 31.9711C11.5172 32.2676 11.2801 32.752 11.1852 33.1293Z" fill="black"/>
<path d="M11.1202 33.8129H9.09085C8.89822 33.8129 8.71843 33.7269 8.59744 33.5768C8.47781 33.4283 8.43214 33.2368 8.4722 33.0513C8.56613 32.6172 8.85871 31.8204 9.76201 31.3614C9.78074 31.352 9.79318 31.3354 9.79468 31.3181C10.0811 27.926 9.69789 26.0973 9.49212 25.115C9.42923 24.8148 9.37947 24.5776 9.3632 24.377C9.35267 24.2471 9.41679 24.1226 9.52863 24.0559C9.6406 23.9891 9.7806 23.9917 9.88984 24.0626C10.5961 24.5207 11.2971 24.7355 11.6521 24.8228C11.9718 24.9016 12.2158 25.1499 12.2893 25.471C12.7735 27.5888 12.5769 30.5261 12.5053 31.3758C12.4838 31.6309 12.3327 31.8535 12.101 31.971C11.5142 32.2692 11.2778 32.757 11.1839 33.1353C11.3423 33.1652 11.4621 33.3042 11.4621 33.4713C11.4618 33.6599 11.3088 33.8129 11.1202 33.8129ZM9.15593 33.1293H10.4898C10.4921 33.1032 10.496 33.077 10.5017 33.0509C10.5954 32.6173 10.8879 31.8204 11.7915 31.3614C11.8102 31.352 11.8226 31.3354 11.824 31.3184C11.8936 30.4934 12.085 27.6449 11.6229 25.6233C11.6074 25.5555 11.556 25.5032 11.4888 25.4866C11.2023 25.4162 10.714 25.2713 10.1671 25.0032C10.3815 26.0265 10.768 27.916 10.4758 31.3758C10.4542 31.631 10.303 31.8536 10.0714 31.971C9.48789 32.2675 9.25081 32.752 9.15593 33.1293Z" fill="black"/>
<path d="M25.2889 33.813H23.2594C23.0403 33.813 22.8363 33.7149 22.6997 33.5439C22.5622 33.3716 22.5113 33.1491 22.5601 32.9332C22.6807 32.4018 23.0512 31.4386 24.177 30.9587C24.229 30.9364 24.278 30.9026 24.3223 30.8585C24.4307 30.7499 24.5985 30.7269 24.7322 30.8026C24.8928 30.8933 25.3257 31.121 25.875 31.2725C25.9993 31.3068 26.0937 31.4079 26.1192 31.5344C26.1447 31.6607 26.0969 31.7908 25.9957 31.8705C25.5286 32.2386 25.3356 32.7338 25.2561 33.0844C25.2532 33.0968 25.2557 33.1079 25.263 33.1173C25.2728 33.1295 25.2844 33.1295 25.2887 33.1295C25.4776 33.1295 25.6305 33.2825 25.6305 33.4713C25.6305 33.6601 25.4777 33.813 25.2889 33.813ZM24.5998 31.5065C24.5503 31.5377 24.4987 31.5646 24.4452 31.5875C23.6413 31.9302 23.3389 32.5907 23.2268 33.0844C23.2239 33.0968 23.2263 33.1079 23.2337 33.1173C23.2434 33.1295 23.2549 33.1295 23.2593 33.1295H24.5721C24.5691 33.0644 24.5747 32.9985 24.5894 32.9332C24.6659 32.5964 24.8238 32.1562 25.1501 31.7512C24.9288 31.6654 24.7408 31.5777 24.5998 31.5065Z" fill="black"/>
<path d="M11.1202 33.813H9.09085C8.89822 33.813 8.71843 33.727 8.59744 33.5769C8.47781 33.4285 8.43214 33.2369 8.4722 33.0514C8.56613 32.6173 8.85871 31.8205 9.76201 31.3615C9.77869 31.3531 9.78675 31.3384 9.79003 31.3304C9.86017 31.1602 10.0524 31.0759 10.2251 31.1402C10.5099 31.246 11.0859 31.4272 11.7428 31.4516C11.8913 31.4572 12.0191 31.558 12.0592 31.701C12.0991 31.844 12.0422 31.9966 11.9182 32.0785C11.4588 32.3816 11.2651 32.8094 11.1839 33.1352C11.3423 33.165 11.4621 33.3042 11.4621 33.4712C11.462 33.6601 11.309 33.813 11.1202 33.813ZM11.1698 33.1959V33.1962C11.1697 33.196 11.1698 33.196 11.1698 33.1959ZM9.15593 33.1294H10.4898C10.4921 33.1035 10.496 33.0775 10.5017 33.0515C10.5548 32.8056 10.6782 32.4192 10.9609 32.049C10.6757 31.996 10.425 31.9271 10.2282 31.8641C10.181 31.9061 10.1285 31.942 10.0715 31.971C9.48788 32.2676 9.25081 32.7521 9.15593 33.1294Z" fill="black"/>
<path d="M25.2889 33.8129H23.2594C23.0403 33.8129 22.8363 33.7149 22.6997 33.5438C22.5622 33.3716 22.5113 33.149 22.5601 32.9331C22.6807 32.4017 23.0512 31.4385 24.177 30.9586C24.2888 30.9109 24.3808 30.8164 24.436 30.6927C24.6873 30.1288 25.1509 28.9877 25.4322 27.6822C25.4557 27.5731 25.531 27.4823 25.634 27.4389C26.2387 27.1852 26.7302 26.7221 27.0178 26.1352C27.0628 26.0435 27.1466 25.9766 27.246 25.953C27.3457 25.9296 27.4504 25.9517 27.5316 26.0137C27.6395 26.0957 27.7512 26.1744 27.8552 26.2413C28.1551 26.4343 28.3128 26.7893 28.2572 27.1454C28.0048 28.7609 27.4173 30.2357 27.0895 30.9708C26.9638 31.2527 26.7454 31.4716 26.4742 31.5873C25.6703 31.9299 25.368 32.5904 25.2559 33.0842C25.2531 33.0966 25.2555 33.1077 25.2629 33.117C25.2726 33.1292 25.2842 33.1292 25.2886 33.1292C25.4774 33.1292 25.6304 33.2822 25.6304 33.471C25.6304 33.6598 25.4777 33.8129 25.2889 33.8129ZM26.0628 27.9953C25.7664 29.2898 25.3116 30.4072 25.0604 30.9709C24.9348 31.2529 24.7162 31.4717 24.4452 31.5874C23.6413 31.93 23.339 32.5905 23.2269 33.0843C23.224 33.0968 23.2265 33.1079 23.2339 33.1171C23.2436 33.1293 23.2551 33.1293 23.2594 33.1293H24.5722C24.5692 33.0642 24.5748 32.9983 24.5896 32.933C24.7102 32.4016 25.0807 31.4385 26.2064 30.9586C26.3182 30.9109 26.4103 30.8164 26.4655 30.6927C26.7181 30.1257 27.333 28.6348 27.5821 27.0401C27.596 26.951 27.5581 26.8631 27.4855 26.8163C27.4689 26.8055 27.452 26.7946 27.4352 26.7835C27.0988 27.3039 26.6245 27.7237 26.0628 27.9953Z" fill="black"/>
<path d="M8.08433 21.9072C8.08186 21.9072 8.07954 21.9072 8.07708 21.9072C7.90974 21.9068 7.73925 21.8918 7.5704 21.8625C7.43901 21.8397 7.33278 21.7426 7.29847 21.6137C7.25964 21.4682 7.23079 21.3444 7.20768 21.2241C6.96843 19.9803 6.89706 18.8778 6.82788 17.8117C6.81093 17.5504 6.79425 17.2934 6.77538 17.0401C6.76704 16.9294 6.81311 16.8216 6.8987 16.751C6.98429 16.6803 7.09899 16.6559 7.20591 16.6849L7.23434 16.6933C7.77356 16.8234 8.37499 16.5175 8.80251 15.8944C8.89179 15.7645 9.05831 15.7124 9.20556 15.7682C9.30112 15.8044 9.38083 15.8298 9.45657 15.848C10.4463 16.0867 11.4594 15.5817 11.8647 14.6465C11.9014 14.5622 11.9701 14.4961 12.056 14.4633C12.1417 14.4305 12.2372 14.4334 12.3207 14.4718C12.6115 14.605 12.836 14.8059 12.9882 15.0695C13.4695 15.9031 13.0021 17.0674 11.9241 17.7202C11.4908 17.9825 11.2194 18.434 11.1981 18.9279C11.1263 20.5999 9.75913 21.9071 8.08433 21.9072ZM7.90427 21.2164C7.9647 21.2212 8.02513 21.2249 8.08433 21.2236C9.39177 21.2236 10.459 20.2035 10.5152 18.8986C10.5464 18.1756 10.9407 17.5165 11.57 17.1355C12.3143 16.6849 12.6849 15.9113 12.3962 15.4113C12.369 15.3643 12.3376 15.3212 12.3018 15.2821C11.6787 16.2865 10.4754 16.7971 9.29634 16.5126C9.2679 16.5058 9.23932 16.4982 9.2102 16.49C8.73223 17.0783 8.10962 17.4065 7.48632 17.4069C7.49438 17.5262 7.50218 17.6464 7.50997 17.7677C7.57778 18.8129 7.64778 19.8935 7.87884 21.0951C7.88663 21.1345 7.89497 21.1746 7.90427 21.2164Z" fill="black"/>
<path d="M21.4447 17.9161C20.6344 17.9161 19.9096 17.4327 19.5985 16.6847C19.5301 16.5205 19.402 16.4071 19.2557 16.3814C17.7343 16.1142 16.6549 14.7461 16.745 13.1992C16.7539 13.0458 16.7771 12.8883 16.8158 12.7171C16.8553 12.5421 17.0234 12.4278 17.2005 12.4545C18.0414 12.5822 18.9453 12.5972 19.8873 12.4992C20.8836 12.3954 21.8102 12.2866 22.6275 12.1905C23.5375 12.0835 24.3235 11.9913 25.052 11.9219C25.2105 11.9069 25.3591 12.0037 25.409 12.1552C25.4809 12.3735 25.5238 12.5976 25.5366 12.8213C25.6026 13.988 24.8804 15.0743 23.7803 15.4631C23.5767 15.535 23.4452 15.7126 23.4452 15.9155C23.4452 17.0187 22.5477 17.9161 21.4447 17.9161ZM17.4323 13.1752C17.4302 13.1967 17.4287 13.2179 17.4274 13.239C17.3575 14.4393 18.1943 15.5008 19.374 15.7081C19.7512 15.7744 20.0711 16.0413 20.2295 16.422C20.4345 16.9144 20.9114 17.2325 21.4447 17.2325C22.1708 17.2325 22.7616 16.6416 22.7616 15.9154C22.7616 15.4263 23.0796 14.9855 23.5526 14.8185C24.3809 14.5258 24.9038 13.7388 24.8541 12.86C24.8497 12.7837 24.8405 12.7071 24.8266 12.631C24.186 12.6958 23.493 12.7771 22.7072 12.8694C21.8877 12.9657 20.9588 13.0748 19.958 13.1791C19.0814 13.2704 18.2335 13.2689 17.4323 13.1752Z" fill="black"/>
<path d="M30.3028 23.6532C30.2876 23.6532 30.2721 23.6523 30.2568 23.6502C29.5475 23.5544 28.9764 22.9951 28.868 22.29C28.8501 22.1731 28.7682 22.075 28.6595 22.0401C27.478 21.6615 26.6841 20.5737 26.6841 19.3332C26.6841 17.8666 27.7817 16.6512 29.237 16.5059C29.35 16.4945 29.4484 16.4345 29.4939 16.3492C29.88 15.624 30.6599 15.2051 31.4807 15.2807C31.6343 15.2949 31.7592 15.4102 31.7857 15.5621C32.0713 17.1922 32.1005 19.8828 30.618 23.4428C30.5644 23.5715 30.4391 23.6532 30.3028 23.6532ZM31.1571 15.962C30.7117 16.0056 30.3122 16.2666 30.0971 16.6705C29.9435 16.9591 29.6472 17.1519 29.305 17.1862C28.2004 17.2965 27.3677 18.2195 27.3677 19.3333C27.3677 20.2755 27.9707 21.1018 28.8682 21.3893C29.2216 21.5027 29.4868 21.8155 29.5438 22.1864C29.5932 22.5078 29.8093 22.7769 30.1 22.9035C31.3257 19.8314 31.3735 17.4779 31.1571 15.962Z" fill="black"/>
<path d="M19.7871 24.478C19.211 24.478 18.6603 24.2778 18.2168 23.9032C18.1266 23.827 18.005 23.7904 17.8754 23.7975C17.3229 23.8322 16.7721 23.6318 16.3654 23.2494C15.9525 22.8613 15.7251 22.3353 15.7251 21.7686C15.7251 21.4455 15.7993 21.1363 15.9458 20.849C16.0074 20.7283 15.9749 20.5838 15.95 20.5083C15.7683 19.9578 15.8661 19.3438 16.2114 18.8661C16.5579 18.3869 17.0969 18.1121 17.6904 18.1121C18.3304 18.1121 18.9127 18.437 19.2483 18.9815C19.4678 19.3373 19.7971 19.5724 20.1516 19.6262C21.393 19.8148 22.2836 20.9045 22.2232 22.161C22.1651 23.3723 21.2103 24.3645 20.0025 24.4687C19.9306 24.4748 19.8587 24.478 19.7871 24.478ZM17.9103 23.1128C18.1885 23.1128 18.4515 23.2066 18.6579 23.3809C19.0165 23.6838 19.4728 23.8283 19.9438 23.7877C20.8123 23.7127 21.4987 22.9992 21.5406 22.1282C21.584 21.2228 20.9428 20.4378 20.0491 20.3022C19.4955 20.2181 18.9916 19.8675 18.6665 19.3403C18.4562 18.9994 18.0913 18.7958 17.6904 18.7958C17.319 18.7958 16.9818 18.9675 16.7654 19.2668C16.5481 19.5673 16.4861 19.9513 16.5991 20.2944C16.6998 20.5992 16.684 20.9067 16.5547 21.1599C16.4579 21.3498 16.4087 21.5548 16.4087 21.7687C16.4087 22.1449 16.5596 22.4939 16.8336 22.7515C17.1035 23.0052 17.4676 23.1376 17.8333 23.1154C17.8591 23.1136 17.8848 23.1128 17.9103 23.1128Z" fill="black"/>
<path d="M32.9857 29.8824C32.92 29.8824 32.8537 29.8673 32.7922 29.8367C32.6376 29.7596 32.5453 29.599 32.5569 29.4272C32.562 29.3542 32.5361 29.1947 32.3074 28.9461C31.9504 28.5583 31.8237 28.089 31.7873 27.7121C31.6666 27.7411 31.5388 27.7162 31.435 27.6399C31.3009 27.5413 31.237 27.3786 31.2683 27.2154C31.3125 26.9863 31.2612 26.6086 31.2376 26.4825C30.9658 25.2442 31.5636 24.6198 31.9444 24.3588C32.039 24.294 32.1596 24.2809 32.266 24.3239C32.3722 24.3669 32.4498 24.4603 32.4727 24.5726C32.5019 24.7162 32.5334 24.8461 32.5689 24.9694C32.5867 25.0312 32.6284 25.0827 32.6861 25.1146C32.7475 25.1482 32.818 25.1561 32.8854 25.1362C33.0238 25.0956 33.0997 24.9545 33.06 24.8145C33.0391 24.7404 33.0179 24.6586 32.997 24.5721C32.9681 24.4525 33.0057 24.3267 33.0954 24.2425C33.1851 24.1584 33.313 24.1287 33.4307 24.1653C34.4179 24.472 35.3244 25.4947 34.9076 27.4452C34.8661 27.6399 34.6987 27.7757 34.5071 27.7835C34.4222 28.6488 33.7146 29.3896 33.2678 29.7768C33.1877 29.8464 33.0874 29.8824 32.9857 29.8824ZM32.0338 26.8781C32.1142 26.8781 32.1946 26.9007 32.2647 26.9454C32.3952 27.0285 32.4705 27.176 32.4617 27.3301C32.4492 27.5493 32.4581 28.1004 32.8104 28.4833C32.9563 28.6418 33.0654 28.8003 33.1373 28.9579C33.4774 28.6004 33.8735 28.0622 33.8285 27.5282C33.8172 27.3941 33.8672 27.2653 33.9657 27.1748C34.0525 27.095 34.1664 27.0553 34.2819 27.0638C34.3582 26.5397 34.3852 25.5954 33.7336 25.079C33.6645 25.4085 33.4222 25.691 33.0803 25.7915C32.8353 25.8634 32.579 25.8356 32.3569 25.7137C32.1906 25.6224 32.0595 25.4865 31.976 25.3219C31.8402 25.5917 31.817 25.9344 31.9073 26.3464C31.9157 26.3903 31.9573 26.6199 31.967 26.8833C31.9892 26.8798 32.0115 26.8781 32.0338 26.8781ZM34.5306 27.1036H34.531C34.5308 27.1037 34.5307 27.1036 34.5306 27.1036Z" fill="black"/>
<path d="M32.8102 25.8307C32.6531 25.8307 32.4982 25.7912 32.3569 25.7136C32.1383 25.5936 31.9803 25.3963 31.9119 25.1583C31.4514 23.556 31.7226 21.7803 31.9846 20.0629C32.139 19.0518 32.2987 18.0063 32.2987 17.0331C32.2987 16.0774 31.9332 15.4872 31.1817 15.2287C31.0738 15.1916 30.9917 15.1033 30.9624 14.993C30.9267 14.8583 30.888 14.7273 30.8476 14.6039C30.7264 14.2353 30.5492 13.905 30.3206 13.6224C30.2338 13.5149 30.2202 13.366 30.2859 13.2445C30.3517 13.1231 30.4843 13.0535 30.6214 13.0674C31.9758 13.207 32.9686 13.7058 33.5724 14.55C34.7564 16.2055 34.1701 18.7499 33.7821 20.4336C33.6991 20.7938 33.6275 21.1049 33.5863 21.351C33.3298 22.8908 33.5586 24.0654 33.7178 24.6284C33.8582 25.1249 33.5722 25.6468 33.0802 25.7914C32.9912 25.8177 32.9003 25.8307 32.8102 25.8307ZM31.5763 14.648C32.254 14.9345 32.9824 15.5803 32.9824 17.0331C32.9824 18.0581 32.8188 19.1297 32.6606 20.1662C32.4096 21.8106 32.1499 23.5111 32.5691 24.9695C32.5869 25.0313 32.6286 25.0828 32.6863 25.1145C32.7477 25.1482 32.8182 25.1561 32.8856 25.1361C33.024 25.0955 33.0999 24.9545 33.0602 24.8145C32.8467 24.0595 32.6476 22.8261 32.9121 21.2386C32.9566 20.9718 33.0304 20.6512 33.116 20.28C33.4764 18.7161 34.0211 16.3524 33.0163 14.9477C32.6353 14.4149 32.0652 14.0592 31.2847 13.8703C31.3665 14.036 31.4375 14.2097 31.4968 14.3907C31.5243 14.474 31.5508 14.56 31.5763 14.648Z" fill="black"/>
<path d="M9.94636 16.5898C9.72911 16.5898 9.51091 16.5642 9.2964 16.5126C8.6463 16.3558 8.07481 15.9686 7.68735 15.4224C7.62323 15.3319 7.50975 15.3047 7.41145 15.3558C6.81755 15.6652 6.13259 15.7491 5.48235 15.5922C4.71577 15.4072 4.06171 14.9026 3.68792 14.2078C3.3144 13.5135 3.25493 12.6868 3.52495 11.9395C3.96723 10.7149 5.22587 9.95855 6.51595 10.1417C7.28048 10.2499 7.94671 10.6543 8.39214 11.2803C8.45763 11.3724 8.57315 11.4004 8.67323 11.3482C9.35518 10.9942 10.1327 10.9383 10.8622 11.1905C12.0943 11.6165 12.869 12.863 12.7042 14.1546C12.6038 14.9428 12.1738 15.6515 11.5246 16.099C11.0569 16.4214 10.5049 16.5898 9.94636 16.5898ZM7.51481 14.6458C7.79673 14.6458 8.06975 14.7799 8.24475 15.027C8.53665 15.4384 8.96704 15.73 9.45663 15.8481C10.0344 15.9877 10.6468 15.8738 11.1366 15.5363C11.6332 15.1939 11.949 14.6726 12.0261 14.0682C12.1501 13.096 11.5667 12.1574 10.6388 11.8367C10.0884 11.6462 9.50202 11.6882 8.98823 11.9549C8.58395 12.1648 8.09901 12.0477 7.83501 11.6766C7.4995 11.2049 6.99706 10.9003 6.42011 10.8185C5.44708 10.6812 4.50071 11.2499 4.16766 12.1717C3.96067 12.7447 4.00401 13.3529 4.28975 13.8839C4.57167 14.4078 5.06481 14.7883 5.64272 14.9277C6.13231 15.0458 6.64829 14.9825 7.09563 14.7494C7.23016 14.6794 7.37372 14.6458 7.51481 14.6458Z" fill="black"/>
<path d="M7.48638 17.4066C7.34802 17.4066 7.2098 17.3905 7.07295 17.3576C6.25195 17.1595 5.65818 16.3937 5.52338 15.3591C5.5097 15.2541 5.54539 15.1487 5.62017 15.0738C5.69482 14.9989 5.80023 14.9628 5.90509 14.9759C6.32728 15.0294 6.75029 14.9535 7.12736 14.7572C7.53041 14.547 8.01357 14.6639 8.27662 15.0344C8.51041 15.3641 8.83416 15.617 9.21273 15.766C9.30953 15.8042 9.38363 15.8843 9.41425 15.9837C9.44488 16.0832 9.42847 16.1911 9.36968 16.2769C8.87586 16.9988 8.1816 17.4066 7.48638 17.4066ZM6.28804 15.6735C6.45416 16.2101 6.79664 16.5877 7.23332 16.6931C7.67615 16.7999 8.15904 16.6144 8.55429 16.2017C8.22617 16.0058 7.94193 15.7441 7.71908 15.4298C7.65496 15.3395 7.54162 15.312 7.44318 15.3634C7.08197 15.5515 6.68931 15.6562 6.28804 15.6735Z" fill="black"/>
<path d="M7.48638 17.4066C7.34802 17.4066 7.2098 17.3905 7.07295 17.3576C6.25195 17.1595 5.65818 16.3937 5.52338 15.3591C5.5097 15.2541 5.54539 15.1487 5.62017 15.0738C5.69482 14.9989 5.80023 14.9628 5.90509 14.9759C6.32728 15.0294 6.75029 14.9535 7.12736 14.7572C7.53041 14.547 8.01357 14.6639 8.27662 15.0344C8.51041 15.3641 8.83416 15.617 9.21273 15.766C9.30953 15.8042 9.38363 15.8843 9.41425 15.9837C9.44488 16.0832 9.42847 16.1911 9.36968 16.2769C8.87586 16.9988 8.1816 17.4066 7.48638 17.4066ZM6.28804 15.6735C6.45416 16.2101 6.79664 16.5877 7.23332 16.6931C7.67615 16.7999 8.15904 16.6144 8.55429 16.2017C8.22617 16.0058 7.94193 15.7441 7.71908 15.4298C7.65496 15.3395 7.54162 15.312 7.44318 15.3634C7.08197 15.5515 6.68931 15.6562 6.28804 15.6735Z" fill="black"/>
<path d="M5.74248 13.2792C5.63748 13.2792 5.53385 13.2309 5.46686 13.1399C5.30635 12.9214 5.2507 12.6451 5.31428 12.3818C5.3717 12.1437 5.5184 11.9422 5.72731 11.8145C5.93621 11.6868 6.18272 11.6483 6.42047 11.7055C6.6585 11.763 6.85988 11.9097 6.98758 12.1186C7.11541 12.3276 7.1541 12.5737 7.09654 12.8117C7.05225 12.9952 6.86781 13.1086 6.68406 13.0639C6.50059 13.0196 6.38766 12.835 6.43195 12.6514C6.44658 12.5908 6.43674 12.5283 6.4042 12.4751C6.37166 12.422 6.32039 12.3846 6.25983 12.37C6.19926 12.3555 6.13678 12.3652 6.08346 12.3978C6.03028 12.4303 5.99295 12.4816 5.97832 12.5421C5.96219 12.6091 5.97627 12.6794 6.01715 12.735C6.12899 12.8871 6.09631 13.101 5.94428 13.2129C5.88371 13.2576 5.81289 13.2792 5.74248 13.2792Z" fill="black"/>
<path d="M10.2768 14.3733C10.1515 14.3733 10.0309 14.3041 9.97087 14.1844C9.88638 14.0157 9.95473 13.8103 10.1236 13.7258C10.1854 13.6949 10.2302 13.6387 10.2464 13.5717C10.2608 13.5113 10.2511 13.4485 10.2186 13.3954C10.1861 13.3422 10.1349 13.3049 10.0744 13.2902C10.0137 13.2756 9.95104 13.2856 9.898 13.318C9.84481 13.3505 9.80749 13.4017 9.79286 13.4622C9.74856 13.6457 9.56427 13.7589 9.38038 13.7143C9.1969 13.67 9.08397 13.4855 9.12827 13.3018C9.18569 13.0638 9.33239 12.8624 9.5413 12.7347C9.7502 12.607 9.99671 12.5684 10.2345 12.6258C10.4725 12.6832 10.6739 12.8299 10.8016 13.0388C10.9293 13.2477 10.968 13.4939 10.9105 13.732C10.8471 13.9953 10.6716 14.2158 10.4291 14.3371C10.3803 14.3617 10.3283 14.3733 10.2768 14.3733Z" fill="black"/>
<path d="M12.3631 14.4651C12.2874 14.4651 12.2126 14.4399 12.1513 14.3915C12.0566 14.3167 12.0083 14.1976 12.0243 14.078C12.025 14.0731 12.0261 14.0662 12.0272 14.0598C12.1451 13.0879 11.5628 12.1561 10.639 11.8366C10.0881 11.6462 9.50187 11.6883 8.98821 11.9549C8.58407 12.1648 8.09913 12.0477 7.83513 11.6767C7.49948 11.205 6.99704 10.9002 6.42009 10.8186C5.44939 10.6814 4.50603 11.2468 4.17052 12.1641C4.16874 12.17 4.16669 12.1761 4.16519 12.1803C4.12527 12.2944 4.02792 12.3789 3.90939 12.4025C3.79085 12.4262 3.66862 12.3853 3.5881 12.2952C3.15005 11.806 2.8397 11.2193 2.66566 10.5519C2.17292 8.66175 2.97737 6.68343 4.81747 5.25978C6.52318 3.94031 8.55632 3.54874 9.87716 4.28579C10.0798 4.39886 10.3097 4.45437 10.5412 4.44603C12.0498 4.39079 13.6837 5.66816 14.6 7.62036C15.5883 9.72652 15.4021 11.854 14.1015 13.3114C13.6421 13.8262 13.0984 14.2067 12.4855 14.4422C12.446 14.4575 12.4043 14.4651 12.3631 14.4651ZM9.94593 11.0349C10.2529 11.0349 10.5616 11.0866 10.8622 11.1905C11.9087 11.5523 12.6251 12.5059 12.7163 13.5764C13.0369 13.3904 13.33 13.1494 13.5917 12.8561C14.704 11.6097 14.8496 9.76097 13.9813 7.91062C13.1923 6.22966 11.7856 5.08519 10.5657 5.12908C10.2098 5.14124 9.85597 5.05648 9.54425 4.88257C8.4762 4.28675 6.70446 4.66409 5.23597 5.80023C3.61941 7.05079 2.90587 8.76265 3.32724 10.3791C3.42636 10.7593 3.5773 11.1074 3.77759 11.419C4.34634 10.5085 5.41903 9.98628 6.51593 10.1416C7.28046 10.2497 7.94669 10.6542 8.39212 11.2802C8.45761 11.3721 8.57314 11.4 8.67321 11.348C9.07407 11.1401 9.50802 11.0349 9.94593 11.0349Z" fill="black"/>
<path d="M3.84323 12.4089C3.74698 12.4089 3.65415 12.3683 3.58866 12.2951C3.15061 11.8059 2.84026 11.2192 2.66622 10.5518C2.27479 9.05059 2.69725 7.49254 3.85567 6.16459C3.88028 6.13629 3.9094 6.11237 3.9418 6.0935C4.64973 5.68321 5.45678 5.55784 6.2142 5.74063C7.96913 6.16418 9.01215 8.10313 8.53911 10.0631C8.43629 10.489 8.2684 10.8903 8.03981 11.256C7.98635 11.3414 7.8979 11.399 7.79809 11.4132C7.69842 11.4273 7.59725 11.397 7.52206 11.3297C7.21321 11.0535 6.83231 10.8769 6.42038 10.8185C5.45036 10.6819 4.50631 11.2468 4.17094 12.1639C4.16917 12.1698 4.16711 12.176 4.16561 12.1802C4.12569 12.2942 4.02835 12.3787 3.90981 12.4024C3.8878 12.4068 3.86538 12.4089 3.84323 12.4089ZM4.33309 6.65746C3.35624 7.79989 2.99913 9.11963 3.32752 10.3792C3.42665 10.7594 3.57758 11.1075 3.77788 11.4191C4.34663 10.5087 5.41932 9.98643 6.51622 10.1417C6.92104 10.199 7.30358 10.3429 7.64141 10.5627C7.74108 10.3532 7.81915 10.1324 7.87452 9.90289C8.25897 8.30944 7.44221 6.74045 6.0537 6.40522C5.48508 6.26782 4.87614 6.3575 4.33309 6.65746Z" fill="black"/>
<path d="M16.1345 10.6681C15.7063 10.6681 15.2435 10.5833 14.747 10.3818C14.6229 10.3313 14.5396 10.2132 14.534 10.0794C14.5053 9.38851 14.3229 8.65789 14.0066 7.96637C13.9589 7.86205 13.9666 7.74078 14.0272 7.64344C14.0878 7.54609 14.1932 7.48566 14.3079 7.48252C14.7376 7.47062 15.3468 7.39721 15.8085 7.11502C16.9308 6.42896 18.3154 6.56404 19.4219 7.46693C19.7169 7.70783 19.7873 8.12975 19.5858 8.44844C19.2113 9.04057 18.0086 10.6681 16.1345 10.6681ZM15.2029 9.82219C17.2093 10.4996 18.5259 8.84519 19.0083 8.08285C19.0255 8.05564 19.0177 8.01928 18.9898 7.99644C18.1151 7.2825 17.0328 7.16807 16.1652 7.69826C15.7443 7.95557 15.2496 8.07643 14.8146 8.12975C15.0242 8.68893 15.1562 9.26369 15.2029 9.82219Z" fill="black"/>
<path d="M14.7378 9.26612C14.7262 9.26612 14.7147 9.26612 14.7031 9.26599C14.5482 9.26407 14.4138 9.15825 14.3758 9.008C14.2875 8.65882 14.1635 8.30841 14.0071 7.96661C13.9593 7.86229 13.9671 7.74116 14.0277 7.64368C14.0883 7.54634 14.1937 7.48591 14.3084 7.48276C14.7381 7.47087 15.3473 7.39745 15.809 7.11526C16.9313 6.42921 18.3159 6.56429 19.4224 7.46718C19.6199 7.62864 19.7222 7.8761 19.6958 8.12917C19.6849 8.23294 19.6273 8.32604 19.5392 8.3821C19.4512 8.43802 19.3424 8.45073 19.2439 8.41655C18.5933 8.1911 17.5839 8.06505 16.4696 8.74618C15.9047 9.09126 15.3222 9.26599 14.7378 9.26612ZM14.8151 8.12985C14.8702 8.27614 14.9199 8.42339 14.9641 8.57091C15.3469 8.53208 15.7323 8.39536 16.1129 8.16267C16.8954 7.68456 17.6427 7.54921 18.2619 7.55741C17.559 7.26716 16.8042 7.30804 16.1656 7.69837C15.7446 7.95567 15.2501 8.07653 14.8151 8.12985Z" fill="black"/>
<path d="M3.45781 7.65185C3.44783 7.65185 3.43785 7.65144 3.42773 7.65049C0.558142 7.39756 0.0809934 4.58047 0.00306368 3.7231C-0.031116 3.34754 0.224138 3.00424 0.59656 2.92453C1.99273 2.62511 3.28664 3.13685 3.97283 4.25918C4.25502 4.72088 4.76375 5.06404 5.14068 5.27062C5.24131 5.32572 5.30748 5.42758 5.31705 5.54187C5.32662 5.65617 5.27822 5.76759 5.18812 5.83869C4.82172 6.12785 4.49468 6.45119 4.21592 6.79982C4.21564 6.80023 4.20758 6.81021 4.2073 6.81062L4.19732 6.82293C4.14797 6.88541 4.09957 6.94912 4.05281 7.01392L3.76283 6.83209L4.04092 7.03088C3.99689 7.09254 3.95424 7.15502 3.91295 7.21845C3.9124 7.21941 3.90584 7.22926 3.90515 7.23021C3.85771 7.30363 3.81711 7.37021 3.77814 7.43775L3.7657 7.45963C3.76488 7.46113 3.76119 7.46783 3.76023 7.46933L3.75517 7.47808C3.69433 7.58595 3.58031 7.65185 3.45781 7.65185ZM1.36533 3.52513C1.16189 3.52513 0.952575 3.54742 0.739704 3.59295C0.704431 3.6006 0.680915 3.62931 0.683786 3.66131C0.765407 4.55982 1.18254 6.63207 3.27679 6.94474C3.29279 6.9189 3.30906 6.8932 3.3256 6.8675L3.33586 6.85191C3.38644 6.77412 3.43484 6.7033 3.48474 6.63343L3.49842 6.61402C3.55092 6.54129 3.60533 6.46937 3.66125 6.39855L3.67533 6.38105C3.89353 6.10816 4.13361 5.85277 4.39447 5.61556C4.03162 5.36961 3.64662 5.03656 3.38931 4.6156C2.96152 3.91547 2.21722 3.52513 1.36533 3.52513Z" fill="black"/>
<path d="M4.12836 6.71328C4.07682 6.71328 4.02473 6.70166 3.9762 6.67746C3.44245 6.41195 2.99333 5.98525 2.64127 5.40925C1.96028 4.29513 1.00448 3.94677 0.322524 3.85066C0.219165 3.83617 0.128247 3.77519 0.0753368 3.68523C0.0225634 3.59527 0.0136767 3.48603 0.0514111 3.38883C0.143286 3.15148 0.347134 2.97785 0.596645 2.92453C1.99241 2.62511 3.28672 3.13685 3.97278 4.25918C4.25497 4.72088 4.7637 5.06404 5.14063 5.27062C5.24125 5.32572 5.30743 5.42757 5.317 5.54187C5.32657 5.65617 5.27817 5.76759 5.18821 5.83869C4.89303 6.07166 4.62288 6.32677 4.38499 6.5972C4.31854 6.67281 4.22434 6.71328 4.12836 6.71328ZM1.58799 3.53402C2.14471 3.80746 2.74641 4.27039 3.22465 5.05269C3.45721 5.43332 3.73776 5.73082 4.06083 5.94C4.16747 5.82884 4.27889 5.72056 4.39456 5.61529C4.0317 5.36947 3.6467 5.03629 3.38954 4.61547C2.99934 3.97699 2.34596 3.59623 1.58799 3.53402Z" fill="black"/>
<path d="M14.3176 8.16603C14.1841 8.16603 14.0626 8.08823 14.0068 7.96642C13.7673 7.44278 13.4509 6.94349 13.0919 6.52226C13.0114 6.42778 12.9884 6.29708 13.032 6.18073C13.0756 6.06439 13.1787 5.98099 13.3015 5.96253C14.0378 5.8522 15.37 5.52681 16.0185 4.58741C16.2256 4.28732 16.5838 4.15771 16.9311 4.2571C17.2764 4.35595 17.5105 4.65359 17.5273 5.01548C17.5742 6.01872 17.3445 6.81005 16.8445 7.36718C16.8024 7.41407 16.7483 7.44839 16.6879 7.46644L16.635 7.48134C16.4708 7.53534 16.3128 7.60821 16.1653 7.69831C15.5751 8.05911 14.8398 8.15167 14.327 8.16575C14.324 8.16603 14.3207 8.16603 14.3176 8.16603ZM13.9661 6.53265C14.1757 6.827 14.3636 7.14077 14.528 7.47149C14.9299 7.44169 15.4213 7.352 15.8089 7.11507C15.9933 7.00241 16.1903 6.91013 16.395 6.84081C16.7294 6.42341 16.8806 5.82062 16.8445 5.04733C16.8402 4.9556 16.7791 4.92456 16.743 4.91417C16.7054 4.90351 16.635 4.89735 16.581 4.97556C15.9566 5.88023 14.8979 6.32005 13.9661 6.53265Z" fill="black"/>
<path d="M4.97647 5.91201C4.92028 5.91201 4.86381 5.89807 4.81227 5.8699C4.36233 5.62353 3.75024 5.20586 3.38944 4.61551C3.29086 4.45432 3.1685 4.30324 3.02563 4.16652C2.97997 4.12277 2.94729 4.06727 2.93129 4.00615C2.74194 3.28318 2.89875 2.47559 3.39709 1.60578C3.57729 1.29133 3.92127 1.13314 4.27374 1.20273C4.62811 1.2726 4.88788 1.55137 4.93532 1.91285C5.08393 3.04529 6.12245 3.94299 6.72811 4.37721C6.82901 4.44953 6.88274 4.57094 6.86852 4.69426C6.8543 4.81758 6.77432 4.92354 6.65948 4.97084C6.14856 5.18193 5.63983 5.48189 5.18811 5.83832C5.12672 5.88727 5.0518 5.91201 4.97647 5.91201ZM3.5725 3.74611C3.72659 3.90402 3.86098 4.07615 3.97282 4.25894C4.20961 4.64654 4.60596 4.95047 4.95022 5.1602C5.24676 4.94131 5.5567 4.74799 5.87676 4.58187C5.14354 3.96746 4.40088 3.0926 4.25774 2.00199C4.2453 1.90779 4.17967 1.88113 4.14153 1.87361C4.10434 1.86637 4.03612 1.86609 3.99059 1.9458C3.60586 2.61723 3.46545 3.22234 3.5725 3.74611Z" fill="black"/>
<path d="M12.6084 10.8407C12.5823 10.8407 12.5556 10.8376 12.5289 10.8314C12.3453 10.7876 12.2318 10.6034 12.2755 10.4197C12.2994 10.3192 12.2827 10.2154 12.2286 10.1275C12.1744 10.0395 12.0893 9.97796 11.9889 9.95403C11.8884 9.93011 11.7845 9.94679 11.6966 10.0009C11.6087 10.0551 11.547 10.1402 11.5231 10.2407C11.4793 10.4243 11.2953 10.538 11.1114 10.4942C10.9278 10.4505 10.8143 10.2663 10.858 10.0825C10.9947 9.50847 11.5725 9.15218 12.1468 9.28903C12.4249 9.35507 12.6606 9.52569 12.8104 9.76919C12.9603 10.0125 13.0064 10.2998 12.9402 10.578C12.9031 10.735 12.763 10.8407 12.6084 10.8407Z" fill="black"/>
<path d="M6.72905 9.42439C6.70252 9.42439 6.67545 9.42138 6.64866 9.41482C6.46518 9.37052 6.35225 9.18581 6.39655 9.00233C6.42075 8.90198 6.40448 8.79808 6.35061 8.71003C6.29674 8.62198 6.2117 8.56005 6.11135 8.53585C6.011 8.51165 5.90723 8.52792 5.81905 8.58179C5.73086 8.63566 5.66907 8.72069 5.64487 8.82105C5.60057 9.00452 5.41532 9.11732 5.23239 9.07315C5.04891 9.02886 4.93612 8.84429 4.98028 8.66067C5.04741 8.38273 5.21858 8.14757 5.46248 7.99855C5.70639 7.84939 5.99391 7.80427 6.27159 7.8714C6.54953 7.93853 6.78469 8.1097 6.93372 8.3536C7.08274 8.59751 7.12799 8.88489 7.06086 9.16271C7.02327 9.31925 6.88327 9.42439 6.72905 9.42439Z" fill="black"/>
<path d="M7.59496 16.4505C7.49311 16.4505 7.39248 16.4386 7.29322 16.4147C6.84984 16.3077 6.48686 15.9714 6.24322 15.4422C6.19865 15.3454 6.2018 15.2331 6.25184 15.1391C6.30174 15.0449 6.39293 14.9794 6.49807 14.962C6.71764 14.9258 6.92709 14.8563 7.12055 14.7556C7.52373 14.5457 8.00689 14.6623 8.2698 15.0328C8.38697 15.198 8.52875 15.3457 8.69104 15.4714C8.77361 15.5354 8.82256 15.6339 8.82352 15.7385C8.82447 15.843 8.77744 15.9424 8.69596 16.0079C8.33201 16.3006 7.95672 16.4505 7.59496 16.4505ZM7.08855 15.5133C7.18576 15.624 7.30662 15.7147 7.45373 15.7502C7.61356 15.7888 7.77584 15.7551 7.9235 15.6903C7.84775 15.6075 7.77734 15.52 7.7124 15.4285C7.64828 15.3381 7.53481 15.3108 7.4365 15.3619C7.32398 15.4204 7.20791 15.4709 7.08855 15.5133Z" fill="black"/>
</g>
<defs>
<clipPath id="clip0_3888_28565">
<rect width="35" height="35" fill="white"/>
</clipPath>
</defs>
</svg>
