<svg xmlns="http://www.w3.org/2000/svg" xmlns:xlink="http://www.w3.org/1999/xlink" version="1.1" id="Capa_1" x="0px" y="0px" viewBox="0 0 512 512" style="enable-background:new 0 0 512 512;" xml:space="preserve" width="300" height="300" xmlns:svgjs="http://svgjs.dev/svgjs"><g width="100%" height="100%" transform="matrix(1,0,0,1,0,0)"><g>
	<g>
		<path style="stroke-linecap: round; stroke-linejoin: round; stroke-miterlimit: 10;" d="&#10;&#9;&#9;&#9;M91.724,197.859c-10.949,6.721-24.373,17.883-35.324,35.915c-4.616,7.601,1.4,17.207,10.241,16.397&#10;&#9;&#9;&#9;c13.272-1.217,31.697-5.013,48.745-15.802" fill="none" fill-opacity="1" stroke="#012660" stroke-opacity="1" data-original-stroke-color="#000000ff" stroke-width="15" data-original-stroke-width="15"/>
		<path style="stroke-linecap: round; stroke-linejoin: round; stroke-miterlimit: 10;" d="&#10;&#9;&#9;&#9;M424.741,200.766c9.993,6.888,21.357,17.362,30.859,33.008c4.616,7.601-1.4,17.207-10.241,16.397&#10;&#9;&#9;&#9;c-13.272-1.217-31.696-5.013-48.745-15.802" fill="none" fill-opacity="1" stroke="#012660" stroke-opacity="1" data-original-stroke-color="#000000ff" stroke-width="15" data-original-stroke-width="15"/>
	</g>
	<g>
		<path style="stroke-linecap: round; stroke-linejoin: round; stroke-miterlimit: 10;" d="&#10;&#9;&#9;&#9;M394.746,153.51l26.057-7.807c25.625-7.677,43.263-31.102,43.8-57.904c0.609-30.4,7.017-58.714,31.495-75.051&#10;&#9;&#9;&#9;c4.537-3.028,10.211,1.912,7.845,6.835c-11.954,24.884-7.626,49.537-2.866,78.412c7.061,42.828-18.36,84.354-59.643,97.468&#10;&#9;&#9;&#9;l-36.386,11.559" fill="none" fill-opacity="1" stroke="#012660" stroke-opacity="1" data-original-stroke-color="#000000ff" stroke-width="15" data-original-stroke-width="15"/>
		<path style="stroke-linecap: round; stroke-linejoin: round; stroke-miterlimit: 10;" d="&#10;&#9;&#9;&#9;M30.332,164.26c10.306,12.234,24.048,21.736,40.225,26.875l35.805,11.375" fill="none" fill-opacity="1" stroke="#012660" stroke-opacity="1" data-original-stroke-color="#000000ff" stroke-width="15" data-original-stroke-width="15"/>
		<path style="stroke-linecap: round; stroke-linejoin: round; stroke-miterlimit: 10;" d="&#10;&#9;&#9;&#9;M119.885,149.973l-28.695-8.597c-25.615-7.675-43.265-31.085-43.8-57.878C46.784,53.061,40.119,24.69,15.896,8.432&#10;&#9;&#9;&#9;c-4.528-3.039-10.205,1.913-7.842,6.836c11.947,24.88,7.62,49.53,2.86,78.4c-2.684,16.278-0.675,32.368,5.113,46.781" fill="none" fill-opacity="1" stroke="#012660" stroke-opacity="1" data-original-stroke-color="#000000ff" stroke-width="15" data-original-stroke-width="15"/>
	</g>
	<path style="stroke-linecap: round; stroke-linejoin: round; stroke-miterlimit: 10;" d="&#10;&#9;&#9;M167.019,412.266c0-38.217,0-74.558-17.914-115.538c-15.421-35.276-36.055-55.867-41.655-86.684&#10;&#9;&#9;c-10.109-55.634,28.731-88.892,74.929-82.116c27.55,4.041,45.693,11.188,73.621,11.188c27.928,0.001,46.071-7.147,73.621-11.188&#10;&#9;&#9;c46.198-6.776,85.037,26.481,74.929,82.116c-5.599,30.817-26.234,51.408-41.655,86.684c-17.914,40.98-17.914,77.321-17.914,115.538&#10;&#9;&#9;" fill="none" fill-opacity="1" stroke="#012660" stroke-opacity="1" data-original-stroke-color="#000000ff" stroke-width="15" data-original-stroke-width="15"/>
	<g>
		<g>
			<path style="stroke-linecap: round; stroke-linejoin: round; stroke-miterlimit: 10;" d="&#10;&#9;&#9;&#9;&#9;M310.734,470.239c-3.892,24.159-26.244,34.261-53.236,34.261h-2.997c-26.991,0-49.344-10.102-53.236-34.262" fill="none" fill-opacity="1" stroke="#012660" stroke-opacity="1" data-original-stroke-color="#000000ff" stroke-width="15" data-original-stroke-width="15"/>
			<path style="stroke-linecap: round; stroke-linejoin: round; stroke-miterlimit: 10;" d="&#10;&#9;&#9;&#9;&#9;M279,341.122h-49.324c-34.605,0-62.658,28.053-62.658,62.658v37.668c0,15.901,12.89,28.79,28.79,28.79h120.381&#10;&#9;&#9;&#9;&#9;c15.901,0,28.79-12.89,28.79-28.79V403.78c0-25.345-15.058-47.16-36.708-57.028" fill="none" fill-opacity="1" stroke="#012660" stroke-opacity="1" data-original-stroke-color="#000000ff" stroke-width="15" data-original-stroke-width="15"/>
		</g>
		<g>
			<path style="stroke-linecap: round; stroke-linejoin: round; stroke-miterlimit: 10;" d="&#10;&#9;&#9;&#9;&#9;M239.588,430.654c-9.26,9.282-24.274,9.282-33.535,0c-9.26-9.282-9.26-24.332,0-33.614L239.588,430.654z" fill="none" fill-opacity="1" stroke="#012660" stroke-opacity="1" data-original-stroke-color="#000000ff" stroke-width="15" data-original-stroke-width="15"/>
			<path style="stroke-linecap: round; stroke-linejoin: round; stroke-miterlimit: 10;" d="&#10;&#9;&#9;&#9;&#9;M272.412,430.654c9.26,9.282,24.274,9.282,33.535,0c9.26-9.282,9.26-24.332,0-33.614L272.412,430.654z" fill="none" fill-opacity="1" stroke="#012660" stroke-opacity="1" data-original-stroke-color="#000000ff" stroke-width="15" data-original-stroke-width="15"/>
		</g>
	</g>
	<g>
		<path style="stroke-linecap: round; stroke-linejoin: round; stroke-miterlimit: 10;" d="&#10;&#9;&#9;&#9;M154.663,213.634L174.389,221c9.975,3.479,17.856,11.276,21.456,21.229l2.226,6.156" fill="none" fill-opacity="1" stroke="#012660" stroke-opacity="1" data-original-stroke-color="#000000ff" stroke-width="15" data-original-stroke-width="15"/>
		<path style="stroke-linecap: round; stroke-linejoin: round; stroke-miterlimit: 10;" d="&#10;&#9;&#9;&#9;M357.337,213.634L337.611,221c-9.975,3.479-17.856,11.276-21.456,21.229l-2.226,6.156" fill="none" fill-opacity="1" stroke="#012660" stroke-opacity="1" data-original-stroke-color="#000000ff" stroke-width="15" data-original-stroke-width="15"/>
	</g>
</g></g></svg>