<svg id="outline" height="300" viewBox="0 0 64 64" width="300" xmlns="http://www.w3.org/2000/svg" version="1.1" xmlns:xlink="http://www.w3.org/1999/xlink" xmlns:svgjs="http://svgjs.dev/svgjs"><g width="100%" height="100%" transform="matrix(1,0,0,1,0,0)"><g><path d="m20 41c1.654 0 3-1.346 3-3s-1.346-3-3-3-3 1.346-3 3 1.346 3 3 3zm0-4c.552 0 1 .449 1 1s-.448 1-1 1-1-.449-1-1 .448-1 1-1z" fill="#012660" fill-opacity="1" data-original-color="#000000ff" stroke="none" stroke-opacity="1"/><path d="m16 46c.553 0 1-.448 1-1v-2c0-.552-.447-1-1-1s-1 .448-1 1v2c0 .552.447 1 1 1z" fill="#012660" fill-opacity="1" data-original-color="#000000ff" stroke="none" stroke-opacity="1"/><path d="m20 45c-.553 0-1 .448-1 1v3c0 .552.447 1 1 1s1-.448 1-1v-3c0-.552-.447-1-1-1z" fill="#012660" fill-opacity="1" data-original-color="#000000ff" stroke="none" stroke-opacity="1"/><path d="m63 21h-10v-2h1c1.654 0 3-1.346 3-3v-2c0-1.654-1.346-3-3-3h-17c-1.654 0-3 1.346-3 3v2c0 1.654 1.346 3 3 3h1v2h-12v-2h1c1.654 0 3-1.346 3-3v-2c0-1.654-1.346-3-3-3h-17c-1.654 0-3 1.346-3 3v2c0 1.654 1.346 3 3 3h1v2h-10c-.553 0-1 .448-1 1v41c0 .552.447 1 1 1h62c.553 0 1-.448 1-1v-41c0-.552-.447-1-1-1zm-27-5v-2c0-.551.448-1 1-1h17c.552 0 1 .449 1 1v2c0 .551-.448 1-1 1h-17c-.552 0-1-.449-1-1zm4 3h11v2h-11zm-31-3v-2c0-.551.448-1 1-1h17c.552 0 1 .449 1 1v2c0 .551-.448 1-1 1h-17c-.552 0-1-.449-1-1zm4 3h11v2h-11zm49 43h-60v-39h60z" fill="#012660" fill-opacity="1" data-original-color="#000000ff" stroke="none" stroke-opacity="1"/><path d="m5 60h54c.553 0 1-.448 1-1v-33c0-.552-.447-1-1-1h-54c-.553 0-1 .448-1 1v33c0 .552.447 1 1 1zm35-26h11v13c0 2.757-2.243 5-5 5h-1c-2.757 0-5-2.243-5-5zm11-2h-11v-5h11zm-38 2h11v13c0 2.757-2.243 5-5 5h-1c-2.757 0-5-2.243-5-5zm11-2h-11v-5h11zm-18-5h5v20c0 3.86 3.141 7 7 7h1c3.859 0 7-3.14 7-7v-20h12v20c0 3.86 3.141 7 7 7h1c3.859 0 7-3.14 7-7v-20h5v31h-52z" fill="#012660" fill-opacity="1" data-original-color="#000000ff" stroke="none" stroke-opacity="1"/><path d="m47 41c1.654 0 3-1.346 3-3s-1.346-3-3-3-3 1.346-3 3 1.346 3 3 3zm0-4c.552 0 1 .449 1 1s-.448 1-1 1-1-.449-1-1 .448-1 1-1z" fill="#012660" fill-opacity="1" data-original-color="#000000ff" stroke="none" stroke-opacity="1"/><path d="m43 46c.553 0 1-.448 1-1v-2c0-.552-.447-1-1-1s-1 .448-1 1v2c0 .552.447 1 1 1z" fill="#012660" fill-opacity="1" data-original-color="#000000ff" stroke="none" stroke-opacity="1"/><path d="m47 45c-.553 0-1 .448-1 1v3c0 .552.447 1 1 1s1-.448 1-1v-3c0-.552-.447-1-1-1z" fill="#012660" fill-opacity="1" data-original-color="#000000ff" stroke="none" stroke-opacity="1"/></g></g></svg>