<svg version="1.1" id="Capa_1" xmlns="http://www.w3.org/2000/svg" xmlns:xlink="http://www.w3.org/1999/xlink" x="0px" y="0px" viewBox="0 0 512 512" style="enable-background:new 0 0 512 512;" xml:space="preserve" width="300" height="300" xmlns:svgjs="http://svgjs.dev/svgjs"><g width="100%" height="100%" transform="matrix(1,0,0,1,0,0)"><g>
	<g>
		<path d="M408.218,129.965c-0.11-0.134-0.222-0.266-0.338-0.395c-18.15-21.24-42-38.83-69-50.87&#10;&#9;&#9;&#9;c-28.172-12.427-58.629-18.831-89.42-18.8c-37.67,0-74.13,9.29-105.8,26.9c-14.89-8-31.86-12-50.51-12c-3.25,0-6.62,0.13-10,0.38&#10;&#9;&#9;&#9;c-9.134,0.507-17.531,5.177-22.78,12.67c-7.847,11.224-6.639,26.435,2.88,36.28c7.38,7.63,12.1,15.59,14.08,23.7&#10;&#9;&#9;&#9;c-0.54,0.833-1.06,1.657-1.56,2.47c-6.868,11.075-15.062,21.27-24.4,30.36H39.92C17.891,180.704,0.044,198.551,0,220.58v51.93&#10;&#9;&#9;&#9;c-0.011,14.348,6.022,28.038,16.62,37.71c15.56,14.15,43.09,35.13,86.15,55.07L122,428.45c3.969,13.24,16.178,22.291,30,22.24&#10;&#9;&#9;&#9;h26.41c13.93-0.053,26.175-9.24,30.12-22.6l9.4-32.29c2.008-6.904-1.961-14.127-8.865-16.135s-14.127,1.961-16.135,8.865&#10;&#9;&#9;&#9;l-9.4,32.29c-0.675,2.285-2.768,3.857-5.15,3.87H152c-2.368,0.007-4.458-1.543-5.14-3.81l-19.7-64.73&#10;&#9;&#9;&#9;c-1.887-6.141-6.313-11.179-12.16-13.84C74.18,323.57,48.48,304.05,34.11,291c-5.183-4.749-8.126-11.461-8.11-18.49v-51.93&#10;&#9;&#9;&#9;c0.005-7.686,6.234-13.914,13.92-13.92h16.62c3.245,0.001,6.374-1.212,8.77-3.4c12.605-11.529,23.561-24.74,32.56-39.26&#10;&#9;&#9;&#9;c1.18-1.91,2.49-3.9,3.87-5.9c1.805-2.613,2.591-5.797,2.21-8.95c-1.86-15.41-9.26-29.91-22-43.09&#10;&#9;&#9;&#9;c-0.943-0.999-0.977-2.55-0.08-3.59c0.836-0.864,1.988-1.352,3.19-1.35c2.75-0.2,5.48-0.3,8.1-0.3c15.74,0,29.71,3.63,41.55,10.8&#10;&#9;&#9;&#9;c2.695,1.625,5.783,2.482,8.93,2.48c3.166-0.001,6.274-0.85,9-2.46c28.61-16.84,62.1-25.74,96.83-25.74&#10;&#9;&#9;&#9;c54.41,0,106.24,22.64,138.65,60.56c4.555,5.55,12.747,6.356,18.296,1.801C411.966,143.706,412.773,135.515,408.218,129.965z" fill="#012660" fill-opacity="1" data-original-color="#000000ff" stroke="none" stroke-opacity="1"/>
	</g>
</g><g>
	<g>
		<path d="M336.94,317.64l-32-32c-5.076-5.074-13.304-5.074-18.38,0l-32,32c-5.07,5.092-5.052,13.33,0.04,18.4&#10;&#9;&#9;&#9;c5.092,5.07,13.33,5.052,18.4-0.04l9.8-9.8v61.73c-0.011,7.172,5.788,12.998,12.96,13.02c7.18,0,13-5.82,13-13v-61.73l9.8,9.8&#10;&#9;&#9;&#9;c5.191,4.96,13.42,4.772,18.38-0.419C341.741,330.577,341.741,322.665,336.94,317.64z" fill="#012660" fill-opacity="1" data-original-color="#000000ff" stroke="none" stroke-opacity="1"/>
	</g>
</g><g>
	<g>
		<path d="M421.959,263.309c-0.136-0.143-0.276-0.282-0.419-0.419L388.65,230c-5.076-5.074-13.304-5.074-18.38,0l-32.9,32.9&#10;&#9;&#9;&#9;c-5.191,4.96-5.379,13.189-0.419,18.38s13.189,5.379,18.38,0.419c0.143-0.136,0.282-0.276,0.419-0.419l10.71-10.71v117.38&#10;&#9;&#9;&#9;c0,7.176,5.814,12.995,12.99,13c7.18,0,13-5.82,13-13V270.56l10.71,10.71c4.96,5.191,13.189,5.379,18.38,0.419&#10;&#9;&#9;&#9;S426.919,268.5,421.959,263.309z" fill="#012660" fill-opacity="1" data-original-color="#000000ff" stroke="none" stroke-opacity="1"/>
	</g>
</g><g>
	<g>
		<path d="M505.88,202.79l-33.54-33.54c-5.076-5.074-13.304-5.074-18.38,0l-33.54,33.54c-5.191,4.96-5.379,13.189-0.419,18.38&#10;&#9;&#9;&#9;s13.189,5.379,18.38,0.419c0.143-0.136,0.282-0.276,0.419-0.419l11.35-11.35v178.13c0,7.18,5.82,13,13,13s13-5.82,13-13V209.82&#10;&#9;&#9;&#9;l11.35,11.35c5.191,4.96,13.42,4.772,18.38-0.419C510.681,215.727,510.681,207.815,505.88,202.79z" fill="#012660" fill-opacity="1" data-original-color="#000000ff" stroke="none" stroke-opacity="1"/>
	</g>
</g><g>
	<g>
		<path d="M148.7,183h-7.48c-7.18,0-13,5.82-13,13s5.82,13,13,13h7.48c7.18,0,13-5.82,13-13S155.88,183,148.7,183z" fill="#012660" fill-opacity="1" data-original-color="#000000ff" stroke="none" stroke-opacity="1"/>
	</g>
</g><g>
	<g>
		<path d="M499,426.1H259.91c-7.18,0-13,5.82-13,13s5.82,13,13,13H499c7.18,0,13-5.82,13-13S506.18,426.1,499,426.1z" fill="#012660" fill-opacity="1" data-original-color="#000000ff" stroke="none" stroke-opacity="1"/>
	</g>
</g><g>
</g><g>
</g><g>
</g><g>
</g><g>
</g><g>
</g><g>
</g><g>
</g><g>
</g><g>
</g><g>
</g><g>
</g><g>
</g><g>
</g><g>
</g></g></svg>