<svg fill="none" height="300" viewBox="0 0 64 64" width="300" xmlns="http://www.w3.org/2000/svg" version="1.1" xmlns:xlink="http://www.w3.org/1999/xlink" xmlns:svgjs="http://svgjs.dev/svgjs"><g width="100%" height="100%" transform="matrix(1,0,0,1,0,0)"><path clip-rule="evenodd" d="m11.6742 23.5h-4.15391c-1.47715 0-2.79894-1.0916-2.92112-2.6444-.26778-3.4034-.0598-7.9 1.45576-11.59184.76226-1.85681 1.87381-3.55462 3.46579-4.7899 1.60498-1.24535 3.63908-1.97386 6.15008-1.97386 2.5167 0 4.5423.73198 6.1261 1.98781 1.5704 1.24517 2.644 2.95498 3.3618 4.8202 1.4269 3.70749 1.5213 8.21699 1.1682 11.61739-.158 1.5211-1.4635 2.5746-2.9148 2.5746h-2.8125c.8386 2.2333 2.5952 4.0636 4.9062 4.96l2.8558 1.1077.0068.0026c1.213-.4433 2.6851-.7699 4.4689-.9768.8425-.0977 1.6502-.1176 2.4173-.0637l1.5757-.4638c-.3916-.531-.6016-1.0915-.6295-1.7208-.0323-.7274.1963-1.4747.4028-2.1497l.0448-.1466c.4468-1.4701 1.0432-3.504.4861-7.094-1.2773-4.1869-.9761-8.00771.8051-10.71066 1.8222-2.76514 5.0468-4.13982 9.0781-3.6441 3.0174.37105 5.1511 1.10311 6.6475 2.17837 1.5283 1.09808 2.3063 2.492 2.7207 3.9912.3559 1.28759.4504 2.69309.5398 4.02179.011.1639.022.3267.0333.4879.1066 1.5152.249 2.9629.73 4.3431.8435 2.42.9865 4.4308.6248 6.1158-.2879 1.3411-.8838 2.4211-1.6166 3.2972 2.8176.8269 4.8028 3.4233 4.8028 6.42v5.0445c0 1.6569-1.3431 3-3 3h-15.5c-.049 0-.0971-.0035-.1442-.0103-.0608.2158-.1264.4328-.1968.6507-.5365 3.2846.2253 5.0093.8302 6.2136.0393.0781.0804.1587.1221.2405.1205.2365.2463.4831.3463.7076.1388.3112.274.675.3158 1.0741.0573.547-.0693 1.0348-.3422 1.4841 1.5683 1.1671 2.5688 3.0334 2.5688 5.1107v2.0035c0 1.3948-1.1307 2.5255-2.5255 2.5255h-21.949c-1.3948 0-2.5255-1.1307-2.5255-2.5255v-2.0035c0-2.4461 1.3872-4.5996 3.4553-5.6634-.6101-.7671-1.102-1.691-1.3565-2.809-.3656-1.6064-.2185-3.5148.6249-5.7969.1457-.3943.2599-.7948.3512-1.2017h-17.0749c-1.65685 0-3-1.3431-3-3v-5.3144c0-3.2589 2.33895-6.0478 5.54807-6.6154 1.71215-.3028 3.07163-1.5059 3.62613-3.0702zm-5.08119-2.8013c-.25571-3.25-.03584-7.392 1.31208-10.6754.66948-1.63079 1.59858-3.00474 2.84171-3.96933 1.2301-.95451 2.8255-1.55397 4.924-1.55397 2.1033 0 3.6817.602 4.8835 1.55495 1.2153.9636 2.109 2.33738 2.7379 3.97145 1.2665 3.2909 1.3829 7.4425 1.0454 10.6925-.0442.4254-.4199.7811-.9255.7811h-3.2981c-.0272-.2315-.0451-.4654-.0533-.7011 1.4136-1.2744 2.2729-3.1473 2.1834-5.2067l-.2265-5.2083c-.028-.64363-.4207-1.21493-1.0117-1.47157l-.7731-.33574c-1.3358-.58009-2.7765-.87942-4.2328-.87942-1.7861 0-3.5532.36712-5.1915 1.07858l-.3308.14366c-.56831.24682-.95581.78513-1.00949 1.40239l-.43343 4.9845c-.21794 2.5063.98552 4.785 2.91622 6.0787-.0043.0377-.0066.0761-.0066.115h-4.42411c-.51486 0-.89321-.3683-.92728-.8013zm33.01659-13.35396c1.3293-2.01715 3.742-3.18035 7.164-2.75955 2.843.34959 4.6062 1.01389 5.7246 1.81752 1.0867.78081 1.6417 1.74832 1.96 2.89986.2981 1.07843.3794 2.26953.4724 3.63283.0108.1591.0218.3206.0333.4845.1071 1.521.2597 3.2056.8366 4.8608.7537 2.1626.8249 3.7937.5578 5.0378-.2655 1.2371-.8836 2.1769-1.6581 2.9324-.0469.0458-.0884.0951-.1245.1471-1.5147-.7908-2.5201-2.3739-2.5201-4.1597v-1.7383l-.0003-.0216c1.2855-1.341 2.0037-3.22 1.7917-5.2339l-.2776-2.637c-.0962-.9138-.8668-1.6075-1.7856-1.6075h-1.675c-1.9265 0-3.8353-.3676-5.624-1.08309l-.8422-.33688c-1.2609-.50437-2.6422.38766-2.7012 1.74447l-.1879 4.3223c-.1088 2.5023 1.1944 4.7271 3.1905 5.9235-.0241 2.0686-1.1107 3.9367-2.8061 4.9976-.1004.0389-.1946.094-.2785.1639-.3763.208-.7793.3775-1.2047.5027l-.7118.2096c-.0413-.0617-.0901-.1196-.1464-.1726-.5064-.4761-.5869-.7717-.5977-1.0149-.0159-.3591.1068-.7825.3632-1.6261.4961-1.6325 1.1781-4.0107.5371-8.0574l-.0112-.0705-.021-.0683c-1.1886-3.8468-.8177-7.02525.5427-9.08956zm.6099 21.80836c.4611-.1357.9026-.3105 1.3213-.5201l4.7608 2.3263c.8488.4147 1.8433.4054 2.6841-.025l4.97-2.5441c.0234-.012.0462-.0248.0682-.0384.4967.2211 1.0271.3843 1.5835.4805 2.2495.3889 3.8926 2.3404 3.8926 4.6232v5.0445c0 .5523-.4477 1-1 1h-15.2134c.433-2.9008-.0599-5.5072-1.4414-7.4842-.7422-1.0622-1.7129-1.9032-2.8717-2.4959zm7.8549.0009 4.0527-2.0746c-1.2852-1.2276-2.0715-2.955-2.0715-4.8411v-.3346c-.8315.3822-1.7588.5963-2.7404.5963-.4864 0-.96-.0527-1.4156-.1527-.2054 1.9319-1.106 3.6894-2.4809 4.9773l3.761 1.8377c.2829.1383.6144.1352.8947-.0083zm-25.2012 10.346c.0263-.2772.0488-.5573.0699-.8404.0112-.1508.0221-.3032.0331-.457.0886-1.2441.1834-2.5746.5407-3.7937.3963-1.3519 1.1205-2.6049 2.4886-3.6099l-1.223-.4744c-1.1326-.4393-2.1573-1.0604-3.0461-1.8222l-4.7507 2.4319c-.8408.4304-1.8353.4397-2.6841.025l-5.24064-2.5608-.01433-.0072c-.2123.0596-.42921.1093-.65025.1484-2.25375.3986-3.89638 2.3572-3.89638 4.6459v5.3144c0 .5523.44771 1 1 1zm-11.5729-12.2333c1.5311-1.1687 2.5286-2.9727 2.6347-4.9852.5401.1425 1.1081.2185 1.6951.2185.8981 0 1.7531-.1784 2.5322-.5012.2645 1.8448 1.011 3.5623 2.1319 4.9951l-4.2198 2.1601c-.2803.1435-.6118.1466-.8947.0083zm21.7674 3.3135c3.4278-.3975 5.8289.7075 7.1381 2.5812 1.332 1.9062 1.7025 4.8469.5287 8.4299l-.0235.0715-.0124.0742c-.6497 3.8682.265 6.0447 1.0034 7.5147.054.1075.1038.2051.1499.2957l.0007.0012c.1107.2173.201.3944.2784.5679.1058.2373.1437.3768.1533.4679l.0008.0074c.0054.0425.0176.1402-.1368.3387-.3996-.1331-.8178-.228-1.2504-.2804l-.1839-.0223c-1.9861-.2403-3.5039-1.8553-3.6473-3.8224 1.49-1.2837 2.4333-3.1844 2.4333-5.3054v-5.608c0-1.0643-.9676-1.8664-2.0135-1.6691-.5164.0974-1.0503.0291-1.5256-.195l-.3832-.1807c-.6681-.3152-1.4567-.2278-2.0397.2258l-.0332.0259c-1.3716 1.0673-3.0152 1.7283-4.7439 1.9076l-1.5206.1578c-.9889.1026-1.7403.936-1.7403 1.9302v3.4055c0 2.5679 1.3827 4.8129 3.4443 6.031-.0153 1.5188-1.1544 2.7939-2.6655 2.9767l-1.1767.1424-.0408.0051c-.7123-.6864-1.2674-1.5241-1.5124-2.6005-.2593-1.1396-.1935-2.6457.5508-4.6597.5789-1.5666.7314-3.1596.8379-4.5865.0114-.1536.0223-.3047.0331-.4534.0927-1.2804.1726-2.3845.4655-3.3837.3099-1.0573.8506-1.9537 1.9278-2.6836 1.1133-.7544 2.8713-1.3791 5.7037-1.7076zm1.6791 5.0864-.0138.0107c-1.667 1.2973-3.6647 2.1006-5.7657 2.3186l-1.4673.1522v3.3519c0 2.7614 2.2386 5 5 5s5-2.2386 5-5v-5.2592c-.8171.087-1.6449-.0515-2.3922-.404zm-3.8677 12.6448c-.2147 1.3198-.9446 2.4769-1.9883 3.2439l3.2889 1.607c.2829.1383.6144.1352.8947-.0083l4.0331-2.0646c-.9178-.8219-1.5834-1.9127-1.8801-3.1406-.8382.3549-1.7599.5512-2.7274.5512-.558 0-1.1007-.0653-1.6209-.1886zm-5.5367 4.3242.9649-.1167 4.9943 2.4404c.8488.4147 1.8433.4054 2.6841-.025l4.97-2.5441c.0566-.0291.1094-.0627.1579-.1004.4317.1564.887.2663 1.3601.3236l.1839.0222c2.193.2654 3.8424 2.1264 3.8424 4.3354v2.0035c0 .2902-.2353.5255-.5255.5255h-21.949c-.2902 0-.5255-.2353-.5255-.5255v-2.0035c0-2.209 1.6494-4.07 3.8424-4.3354zm-13.7372-42.0254c1.3869-.6022 2.8828-.91303 4.3948-.91303 1.1822 0 2.3518.24299 3.4361.71393l.592.257.2178 5.011c.1143 2.6279-1.9854 4.8209-4.6158 4.8209-2.7096 0-4.8376-2.321-4.6028-5.0205l.4173-4.7995zm31.3325.842.8043.3217c2.025.8099 4.1859 1.2261 6.3668 1.2261h1.4909l.2583 2.4539c.2839 2.6971-1.8308 5.0461-4.5428 5.0461-2.6007 0-4.6766-2.1681-4.5636-4.7663z" fill="#012660" fill-rule="evenodd" fill-opacity="1" data-original-color="#000000ff" stroke="none" stroke-opacity="1"/></g></svg>