<svg xmlns="http://www.w3.org/2000/svg" version="1.1" xmlns:xlink="http://www.w3.org/1999/xlink" width="512" height="512" x="0" y="0" viewBox="0 0 500 500" style="enable-background:new 0 0 512 512" xml:space="preserve" class=""><g><path fill-rule="evenodd" d="M407.095 223.521c-2.901-.699-5.957.73-7.252 3.434-2.901 5.853-6.578 13.628-9.531 21.926-2.124 5.884-1.658 11.893 1.295 17.383 2.849 5.304 2.693 11.587-.414 16.814-3.16 5.263-8.443 8.277-14.607 8.277-6.112 0-11.396-3.025-14.555-8.277-3.108-5.227-3.263-11.51-.414-16.814 2.952-5.491 3.367-11.499 1.295-17.383-2.952-8.298-6.63-16.073-9.531-21.926-1.088-2.248-3.367-3.61-5.802-3.61a5.8 5.8 0 0 0-1.45.176c-13.519 3.206-26.676 1.684-39.936-4.662 11.188-7.014 24.19-9.484 39.418-7.547a6.428 6.428 0 0 0 5.232-1.699 6.23 6.23 0 0 0 2.02-5.128l-1.243-19.031 12.121 10.893a6.567 6.567 0 0 0 4.351 1.642h17.042c1.606 0 3.16-.586 4.299-1.642l12.173-10.893-1.243 19.031a6.23 6.23 0 0 0 2.02 5.128 6.428 6.428 0 0 0 5.232 1.699c15.229-1.937 28.23.534 39.418 7.547-13.314 6.345-26.419 7.868-39.938 4.662zm-56.875 36.632c1.191-2.253 1.398-4.517.518-6.931-2.072-5.77-4.506-11.339-6.786-16.109-17.87 2.926-35.689-1.083-53.041-11.955-1.709-1.077-2.849-2.911-3.004-4.947a6.554 6.554 0 0 1 2.175-5.361c11.188-9.878 23.879-15.42 38.434-16.772-3.885-1.891-7.77-3.579-11.655-5.004-14.452-5.325-21.962-5.465-35.119-5.071-5.905 12.639-5.439 14.12-1.865 24.998.881 2.621 1.968 5.884 3.108 9.811l.104.363c2.952 10.007 9.065 30.815-5.905 39.465-3.004 1.715-5.905 2.43-8.702 2.44-10.204 0-18.958-9.422-23.672-14.514l-.259-.316c-2.227-2.367-3.833-4.594-5.284-6.573-3.574-4.9-4.351-5.812-8.599-5.537-3.315.217-5.853 1.559-8.857 3.118-3.988 2.082-8.961 4.683-15.695 3.916-12.069-1.368-21.237-15.783-26.728-24.402l-.518-.808c-6.889-10.743-10.515-15.436-15.229-18.87-8.909 6.231-15.902 15.12-20.875 26.593 11.862.622 23.206 6.081 31.183 15.389 6.682 7.847 15.591 10.893 23.413 13.581 7.304 2.517 14.193 4.885 18.285 10.743 4.04 5.838 4.351 13.815 4.714 23.05.104 3.17.259 6.408.518 9.671 23.465 4.967 49.416 2.854 79.199-6.413a6.448 6.448 0 0 1 5.439.736c1.606 1.052 2.642 2.756 2.901 4.667 1.243 10.79 3.574 18.855 7.459 26.158.363.73.622 1.533.725 2.357l6.06 57.626a183.114 183.114 0 0 0 10.411-7.511l-1.917-64.939c0-1.031.207-2.056.622-2.989l15.177-31.379c-.879-6.187.209-12.558 3.265-18.281zm24.863 97.349c-32.477 30.939-63.246 60.22-115.303 60.231-1.761 0-3.522-.036-5.335-.104a116.725 116.725 0 0 1-6.889-.466c-2.227-.212-4.144-1.528-5.18-3.491-.984-1.974-.881-4.315.207-6.216l23.983-40.672c.933-1.533.622-3.408-.777-4.569l-.829-.71c-1.347-1.119-3.16-1.155-4.507-.088-17.197 13.416-36.673 23.874-57.807 31.079-11.965 4.066-23.879 2.647-34.549-4.103-29.007-18.394-56.149-48.198-69.202-75.947-15.332-32.488-18.078-72.321-7.511-109.304 20.305-71.197 89.507-124.953 164.563-127.822 53.197-2.03 96.655 24.64 146.174 56.315-36.776-49.725-95.1-79.665-158.035-79.665-108.362 0-196.522 88.15-196.522 196.502 0 49.193 18.285 96.261 51.436 132.541 42.837 46.862 95.05 70.518 147.055 66.597 51.487-3.885 99.141-34.86 134.157-87.218.622-.912.673-1.86.104-2.813-.466-.777-1.036-1.197-1.813-1.311-1.141-.165-2.436.312-3.42 1.234zm-100.954-5.149-.829-.715c-6.061-5.092-14.607-5.252-20.823-.399-16.057 12.52-34.187 22.294-54.025 29.033-8.184 2.797-16.109 1.87-23.413-2.787-2.279-1.419-4.455-2.921-6.682-4.481l.155-40.128c8.288-8.92 13.778-19.476 16.679-32.037 9.065 4.734 18.492 8.35 28.178 10.8 25.07 6.319 52.368 5.19 83.343-3.47 1.502 8.412 3.781 15.436 7.148 22.03l6.578 62.308c-14.659 7.645-30.924 12.302-50.659 12.302h-.622l18.544-31.467a16.471 16.471 0 0 0-3.572-20.989zm-140.063-79.266c.207-11.846 1.606-22.75 4.196-32.477 9.738-.699 19.373 3.279 25.847 10.847 9.013 10.541 20.15 14.353 29.059 17.42 5.232 1.808 10.204 3.502 11.862 5.884 1.917 2.74 2.175 9.578 2.434 16.187.052 1.766.104 3.626.207 5.548-8.236-2.808-16.265-6.589-23.931-11.287a6.399 6.399 0 0 0-6.164-.311c-1.968.953-3.315 2.849-3.626 5.035-1.761 14.793-7.148 26.495-16.42 35.767a6.303 6.303 0 0 0-1.917 4.537l-.155 32.809a212.177 212.177 0 0 1-13.105-12.167c-.311-3.709-.622-7.314-1.036-10.743-1.088-9.236-2.486-17.673-4.247-25.775-2.227-14.029-3.211-27.916-3.004-41.274zm66.561-82.971 66.872-1.709c-4.869 12.256-3.678 17.104.103 28.639.881 2.657 1.917 5.682 3.004 9.407l.104.373c2.175 7.35 6.216 21.056 0 24.63-4.455 2.585-10.567-3.367-16.42-9.676l-.311-.311c-1.658-1.808-3.004-3.631-4.299-5.397-3.937-5.423-8.391-11.561-19.839-10.82-6.009.383-10.463 2.693-13.986 4.553-3.626 1.875-5.594 2.849-8.288 2.538-5.905-.668-13.882-13.172-17.3-18.508l-.518-.829c-5.336-8.339-9.324-13.98-13.778-18.362 7.304-2.782 15.488-4.295 24.656-4.528zM463.14 214.85c-13.934-12.276-30.146-17.881-49.415-17.021l1.813-27.339a6.525 6.525 0 0 0-3.626-6.221 6.457 6.457 0 0 0-7.148 1l-22.118 19.808h-12.121l-22.066-19.808a6.457 6.457 0 0 0-7.148-1 6.525 6.525 0 0 0-3.626 6.221l1.243 18.367c-5.905-3.108-11.758-5.75-17.611-7.904-17.819-6.568-27.246-6.268-42.837-5.77-.414.021-.777.026-1.139.047-.777.016-1.554.042-2.331.067-.104 0-.207.01-.311.01-.829.026-1.657.041-2.486.067l-71.896 1.823c-36.828.943-62.158 20.181-73.242 55.652-3.678 11.867-5.698 25.34-5.905 40.035-.207 14.162.829 28.852 3.16 43.671 0 .135.052.275.052.404 1.243 5.429 2.227 11.043 3.108 16.979-6.941-8.894-12.742-18.067-16.938-26.992-13.986-29.696-16.42-66.245-6.734-100.261 18.803-65.975 82.981-115.8 152.597-118.457 51.021-1.958 93.91 25.578 143.636 57.444 6.371 4.051 12.898 8.256 19.528 12.421a6.408 6.408 0 0 0 7.822-.741 6.396 6.396 0 0 0 1.295-7.775c-36.571-68.169-107.328-110.52-184.61-110.52-55.942 0-108.517 21.786-148.091 61.339-39.522 39.548-61.329 92.133-61.329 148.076 0 52.42 19.476 102.591 54.802 141.253 42.267 46.251 93.496 71.217 145.397 71.217 4.04 0 8.081-.15 12.173-.456 55.476-4.191 106.601-37.186 143.895-92.905 3.367-4.967 3.574-11.271.57-16.451-2.383-4.175-6.475-6.967-11.137-7.646-5.076-.725-10.36 1.015-14.193 4.657-6.941 6.63-13.675 13.069-20.512 19.077l-1.554-53.223 9.79-20.217c5.594 6.63 13.778 10.489 22.688 10.489 10.67 0 20.253-5.449 25.692-14.561 5.491-9.168 5.75-20.217.725-29.556-1.243-2.253-1.398-4.517-.518-6.931 2.02-5.77 4.506-11.339 6.786-16.109 17.87 2.926 35.689-1.083 53.041-11.955 1.709-1.077 2.797-2.911 3.004-4.947.156-2.028-.673-4.017-2.175-5.358z" clip-rule="evenodd" fill="#012660" opacity="1" data-original="#000000"></path></g></svg>