<svg id="Layer_1" enable-background="new 0 0 500 500" viewBox="0 0 500 500" xmlns="http://www.w3.org/2000/svg" width="300" height="300" version="1.1" xmlns:xlink="http://www.w3.org/1999/xlink" xmlns:svgjs="http://svgjs.dev/svgjs"><g width="100%" height="100%" transform="matrix(1,0,0,1,0,0)"><path clip-rule="evenodd" d="m279.056 268.175h-3.418c-3.574 0-6.474-2.89-6.474-6.453 0-3.574 2.9-6.459 6.474-6.459h3.418c3.574 0 6.474 2.885 6.474 6.459 0 3.563-2.901 6.453-6.474 6.453zm-27.347 0h-3.47c-3.574 0-6.422-2.89-6.422-6.453 0-3.574 2.849-6.459 6.422-6.459h3.47c3.574 0 6.474 2.885 6.474 6.459 0 3.563-2.9 6.453-6.474 6.453zm-27.346 0h-3.47c-3.574 0-6.474-2.89-6.474-6.453 0-3.574 2.9-6.459 6.474-6.459h3.47c3.574 0 6.474 2.885 6.474 6.459 0 3.563-2.9 6.453-6.474 6.453zm74.84 20.665c0 3.563-2.9 6.453-6.474 6.453h-3.47c-3.522 0-6.422-2.89-6.422-6.453s2.9-6.458 6.422-6.458h3.47c3.573 0 6.474 2.895 6.474 6.458zm-27.347 0c0 3.563-2.9 6.453-6.474 6.453h-3.47c-3.522 0-6.422-2.89-6.422-6.453s2.9-6.458 6.422-6.458h3.47c3.574 0 6.474 2.895 6.474 6.458zm-27.346 0c0 3.563-2.9 6.453-6.474 6.453h-3.47c-3.574 0-6.422-2.89-6.422-6.453s2.849-6.458 6.422-6.458h3.47c3.574 0 6.474 2.895 6.474 6.458zm-27.346 0c0 3.563-2.9 6.453-6.474 6.453h-3.47c-3.574 0-6.474-2.89-6.474-6.453s2.901-6.458 6.474-6.458h3.47c3.573 0 6.474 2.895 6.474 6.458zm176.094 28.471c0-27.077-7.613-53.439-21.96-76.244-9.841-15.626-22.581-29.128-37.394-39.865l6.837-.067c3.574-.036 6.474-2.952 6.422-6.521s-2.952-6.459-6.526-6.396l-29.418.3s0 0-.052 0c-.259.01-.518.026-.725.062-.052 0-.104.011-.155.016-.207.036-.414.072-.57.124-.104.026-.155.041-.259.067-.155.052-.311.104-.518.171-.052.026-.104.041-.155.078-.259.093-.466.197-.673.321-.207.119-.414.254-.622.404-.052.036-.103.067-.155.109-.155.114-.311.243-.414.373-.052.041-.104.088-.155.129-.155.155-.311.316-.466.492 0 .021-.052.042-.052.067-.155.197-.311.404-.414.627-.052.01-.052.021-.052.026 0 .041-.052.088-.052.13-.052.119-.155.243-.207.362-.052.052-.052.093-.052.145-.052.078-.104.155-.104.233-.103.166-.155.326-.207.503 0 .067-.052.135-.052.207-.052.212-.155.435-.155.653 0 .026 0 .042-.052.057 0 .249-.052.508-.052.756v.14.601.218c.052.181.052.362.104.544v.197c.052.244.155.477.207.71 0 .042.052.083.052.129.052.186.155.378.259.554v.098l13 26.404c1.088 2.289 3.418 3.615 5.801 3.615.932 0 1.916-.212 2.849-.663 3.159-1.575 4.506-5.438 2.952-8.644l-3.263-6.552c33.458 24.306 53.553 63.016 53.553 105.33 0 59.654-40.346 111.597-98.043 126.321-3.47.886-5.542 4.397-4.661 7.852.725 2.916 3.366 4.863 6.215 4.863.57 0 1.088-.062 1.606-.197 63.443-16.19 107.778-73.275 107.778-138.839zm-170.811 133.738c0-.171.052-.342.052-.523 0-.067 0-.134 0-.212.052-.502.052-1-.052-1.492 0-.052 0-.103-.052-.155 0-.186-.052-.378-.103-.565-.052-.072-.052-.14-.052-.207-.104-.181-.155-.358-.207-.534-.052-.057-.052-.114-.104-.166-.103-.223-.207-.44-.311-.647-.052-.041-.104-.083-.104-.135-.103-.166-.207-.331-.362-.487 0-.021 0-.057-.052-.083l-18.438-22.918c-2.227-2.781-6.267-3.221-9.064-.989-2.797 2.237-3.211 6.298-.984 9.084l4.35 5.449c-46.406-20.598-77.326-66.916-77.326-119.159 0-49.617 27.553-94.283 71.939-116.564 3.211-1.601 4.506-5.485 2.901-8.67-1.606-3.185-5.49-4.47-8.701-2.869-23.358 11.747-43.143 29.672-57.127 51.86-14.346 22.804-21.908 49.166-21.908 76.244 0 57.805 34.442 109.012 86.079 131.418l-6.837 1.611c-3.47.813-5.645 4.293-4.817 7.764.673 2.978 3.315 4.988 6.267 4.988.466 0 .984-.062 1.502-.176l28.641-6.738c.103-.036.259-.078.362-.124.104-.031.207-.052.311-.083.311-.114.57-.233.88-.378 0-.026.052-.047.104-.072.207-.129.466-.28.673-.445.103-.062.155-.119.259-.192.155-.135.311-.28.466-.435.103-.078.155-.161.207-.233.207-.202.362-.414.518-.627.052-.047.052-.088.103-.129.155-.259.311-.544.466-.829.052-.098.052-.192.104-.285.052-.119.103-.233.155-.352.052-.114.052-.223.104-.337 0-.062.052-.114.052-.171 0-.062 0-.114.052-.176.002-.085.002-.173.054-.261zm48.892-57.827c-2.072.585-3.677 2.17-4.351 4.216l-6.785 20.862c-.052.15-.104.166-.259.166h-19.94c-.155 0-.155-.015-.207-.166l-6.785-20.862c-.673-2.046-2.331-3.631-4.402-4.216-5.904-1.673-11.653-4.055-17.04-7.08-.984-.549-2.072-.823-3.159-.823-1.036 0-2.02.233-2.952.704l-19.578 9.96c-.104.072-.155.062-.259-.042l-14.088-14.119c-.103-.104-.155-.14-.052-.275l9.944-19.552c.984-1.921.932-4.211-.103-6.091-3.056-5.397-5.438-11.141-7.095-17.06-.57-2.087-2.175-3.729-4.195-4.392l-20.872-6.785c-.155-.041-.155-.067-.155-.218v-3.527h41.434c3.211 30.014 28.693 53.455 59.561 53.455 30.816 0 56.298-23.441 59.561-53.455h41.434v3.527c0 .15-.052.176-.155.218l-20.872 6.785c-2.072.663-3.626 2.305-4.195 4.382-1.709 5.93-4.091 11.674-7.095 17.071-1.088 1.88-1.139 4.169-.155 6.091l9.996 19.552c.052.135.052.161-.052.275l-14.139 14.119c-.103.103-.103.114-.259.042l-19.526-9.96c-1.916-.979-4.247-.937-6.112.119-5.388 3.035-11.137 5.407-17.093 7.079zm25.171-69.298c-3.16 22.866-22.789 40.543-46.51 40.543s-43.402-17.677-46.561-40.543zm-46.51-86.073c-41.745 0-76.083 32.272-79.346 73.157h158.692c-3.315-40.885-37.653-73.157-79.346-73.157zm-16.573-145.516c0-15.186 5.956-29.568 16.573-40.232 10.566 10.664 16.574 25.047 16.574 40.232 0 11.752-3.626 23.011-10.1 32.448v-23.933c0-3.563-2.9-6.459-6.474-6.459s-6.474 2.895-6.474 6.459v23.933c-6.526-9.437-10.099-20.696-10.099-32.448zm-52.466 63.984c-8.235-4.76-14.347-12.311-17.247-21.219 9.167-1.932 18.749-.44 26.984 4.319 8.235 4.755 14.347 12.311 17.247 21.214-9.168 1.932-18.749.441-26.984-4.314zm128.341-16.899c8.235-4.76 17.765-6.251 26.984-4.319-2.952 8.908-9.012 16.46-17.247 21.219-8.235 4.754-17.816 6.246-26.984 4.314 2.901-8.903 8.961-16.46 17.247-21.214zm-17.661 259.639 16.573 8.427c5.076 2.6 11.239 1.632 15.279-2.419l14.088-14.119c4.04-4.04 5.024-10.167 2.434-15.263l-8.442-16.542c2.227-4.33 4.092-8.841 5.593-13.456l17.661-5.733c5.438-1.766 9.064-6.795 9.064-12.503v-9.986c0-3.563-2.901-6.458-6.474-6.458h-15.123c-3.211-45.878-39.984-82.66-85.82-85.846v-36.519l28.538-16.496c4.869 1.481 9.892 2.227 14.916 2.227 8.857 0 17.661-2.315 25.585-6.867 13.207-7.65 22.271-20.696 24.86-35.794.518-3.056-1.243-6.049-4.143-7.137-14.347-5.319-30.195-3.993-43.402 3.662-12.378 7.121-21.08 18.93-24.291 32.722l-22.063 12.772v-29.49c14.657-13.274 22.996-32.018 22.996-51.906 0-20.924-9.219-40.579-25.378-53.942-2.382-1.978-5.853-1.978-8.235 0-16.108 13.362-25.378 33.018-25.378 53.942 0 19.888 8.39 38.632 23.048 51.906v29.49l-22.115-12.772c-3.211-13.782-11.912-25.601-24.239-32.722-13.259-7.655-29.107-8.981-43.454-3.662-2.901 1.088-4.61 4.081-4.092 7.137 2.538 15.097 11.602 28.139 24.86 35.794 7.872 4.552 16.677 6.867 25.585 6.867 4.972 0 9.996-.746 14.865-2.227l28.589 16.496v36.519c-45.888 3.185-82.661 39.968-85.82 85.846h-15.175c-3.574 0-6.474 2.895-6.474 6.458v9.986c0 5.708 3.677 10.737 9.115 12.503l17.661 5.733c1.45 4.615 3.367 9.121 5.542 13.456l-8.39 16.542c-2.641 5.096-1.657 11.223 2.382 15.263l14.139 14.129c4.04 4.04 10.152 5.008 15.279 2.409l16.522-8.427c4.351 2.212 8.857 4.081 13.466 5.578l5.749 17.651c1.761 5.438 6.785 9.09 12.482 9.09h19.94c5.749 0 10.773-3.651 12.534-9.079l5.749-17.661c4.609-1.487 9.115-3.356 13.414-5.579z" fill-rule="evenodd" fill="#012660" fill-opacity="1" data-original-color="#000000ff" stroke="none" stroke-opacity="1"/></g></svg>