<svg height="512" viewBox="0 0 512 512" width="512" xmlns="http://www.w3.org/2000/svg"><g id="Layer_2" data-name="Layer 2"><g id="_03.download_arrow" data-name="03.download_arrow"><circle id="background" cx="256" cy="256" fill="#ff2147" r="256"/><g fill="#fff"><path d="m255.71 396q-34.11 0-68.21 0c-31.18 0-53.68-22.42-53.84-53.59q-.09-16.32 0-32.65c.06-11.22 6.86-18.44 17.26-18.46s17.29 7.15 17.36 18.36 0 22.16 0 33.24c.08 11.62 6.91 18.39 18.57 18.4q69.09 0 138.17 0c11.67 0 18.51-6.78 18.6-18.39.08-11.08 0-22.16 0-33.24s6.91-18.39 17.35-18.37 17.34 7.24 17.25 18.45c-.11 14.17.68 28.49-1.1 42.47-3.26 25.58-25.07 43.64-50.95 43.76-23.43.07-46.95.02-70.46.02z"/><path d="m273.35 248.88c2.64-2.46 4.19-3.81 5.63-5.26 11.08-11.19 22.1-22.45 33.23-33.6 7.9-7.91 18.91-8.5 26.05-1.56s6.86 18.29-.91 26.11q-33.93 34.14-68.08 68.07c-8 7.95-18.46 8-26.46 0q-34.38-34.1-68.48-68.49c-7.48-7.55-7.52-18.9-.57-25.68s18-6.48 25.63 1.1c11.3 11.24 22.43 22.67 33.65 34 1.44 1.46 3 2.82 5.31 5 .15-3.14.33-5.17.33-7.2 0-35.79-.06-71.57 0-107.36 0-13.43 11.82-21.42 24.1-16.63 6.81 2.64 10.49 8.54 10.5 17.18q.06 53.1 0 106.19z"/></g></g></g></svg>