<svg xmlns="http://www.w3.org/2000/svg" version="1.1" xmlns:xlink="http://www.w3.org/1999/xlink" width="512" height="512" x="0" y="0" viewBox="0 0 512 512" style="enable-background:new 0 0 512 512" xml:space="preserve" class=""><g><path d="M498.989 72.961c-41.526-33.037-87.658-45.2-137.112-36.146a194.71 194.71 0 0 0-30.526 8.262c-58.516 1.525-94.53 24.7-114.463 43.949-17.556 16.953-25.977 33.674-28.788 40.074-27.926 10.245-45.341 36.81-55.329 52.063a212.3 212.3 0 0 1-23.39 29.6l-84.964 89.723A52.3 52.3 0 0 0 10.351 329.8c-1.37 11.242 1.241 20.8 7.549 27.644.469.508.96.991 1.462 1.461a39.379 39.379 0 0 0 14.123 23.564c8.49 6.734 19.768 10.114 33.667 10.114a107.712 107.712 0 0 0 18.1-1.655c1.679-.252 22.807-3.465 44.081-8.917.58 1.951 1.094 3.63 1.546 5.1 3.266 10.653 3.686 12.022 7.145 45.686a6.005 6.005 0 0 0 5.921 5.389 6.149 6.149 0 0 0 5.17-2.874l6.042-9.279 3.641 25.276a6 6 0 0 0 11.041 2.3 135.071 135.071 0 0 0 12.968-29.962c5.72-19.372 5.7-36.953.056-51.464l44.277-4.477c.17.516.343 1.03.524 1.537 6.1 17.073 2.195 28.8-2.154 35.63a14.455 14.455 0 0 0-.8 14.154 14.74 14.74 0 0 0 11.836 8.3 95.62 95.62 0 0 0 19.912-.048l5.6 19.578c.012.044.026.087.039.131a44.119 44.119 0 0 0 61.78 26.431L453.552 409a44.135 44.135 0 0 0 11.994-70.306l-93.74-96.324c-2.888-44.8-24.2-73.473-41.744-89.708a136.626 136.626 0 0 0-30.462-21.336 192.57 192.57 0 0 1 45.873-30.87 193.97 193.97 0 0 1 3.728-1.755 269.056 269.056 0 0 1 38.819-2.26c28.736.393 52.482 5.568 68.669 14.965a6 6 0 0 0 7.566-1.281 6.253 6.253 0 0 0 .826-6.583c-4.355-9.984-11.348-17.646-18.082-23.221a242.707 242.707 0 0 1 44.817 6.513 8.233 8.233 0 0 0 9.317-4.044 7.909 7.909 0 0 0-2.144-9.829zM225.66 97.239c19.178-18.349 42.993-30.485 71.076-36.284a247.4 247.4 0 0 0-21.648 13.7c-23.546 16.68-39.006 33.58-46.222 44.658a74.345 74.345 0 0 0-13.647 3.146 66.638 66.638 0 0 1-11.715 2.877 126.718 126.718 0 0 1 22.156-28.097zM22.188 338.671a31.467 31.467 0 0 1 .075-7.425 38.7 38.7 0 0 1 4.925-14.528c3.083-2.271 5.8-3.321 7.718-2.937 2.3.458 4.159 3.052 5.319 5.147a4.334 4.334 0 0 1 .3 3.545 3.969 3.969 0 0 1-2.265 2.387c-7.26 2.945-12.507 8.553-16.072 13.811zm145.684 91.451-3.108-21.575a6 6 0 0 0-10.967-2.418l-5.613 8.623c-2.119-19.055-3.013-21.971-5.83-31.16-.426-1.392-.909-2.966-1.451-4.785a135.817 135.817 0 0 1 24.445-4.853l5.02-.508c9.032 18.789 3.466 41.454-2.496 56.676zm154.041-268.655c23.572 21.813 36.376 50.005 38.054 83.794.849 17.091 8.994 31.01 17.618 45.748 7.026 12.006 14.99 25.615 20.261 43.03a6 6 0 0 0 5.741 4.263 6.079 6.079 0 0 0 2.468-.529 6.166 6.166 0 0 0 3.2-7.463c-5.681-18.649-13.983-32.838-21.313-45.362a207.464 207.464 0 0 1-10.643-19.73l79.243 81.428A32.749 32.749 0 0 1 465.7 374.2a31.832 31.832 0 0 1-17.488 24.047l-129.677 64.421a32.134 32.134 0 0 1-44.963-19.182l-5.217-18.251c18.412-4.389 39.676-15.365 58.371-40.156a77.014 77.014 0 0 0 14.907-55.88c-1.875-15.561-2.786-37.935 3.524-56.161 12.753-36.84-4.051-57.746-4.773-58.618a6 6 0 1 0-9.278 7.611c.542.677 13.141 16.955 2.711 47.081-7.058 20.387-6.124 44.709-4.1 61.522a65.07 65.07 0 0 1-12.575 47.22c-27.817 36.89-61.671 39.35-79.374 37.533a2.791 2.791 0 0 1-2.259-1.588 2.482 2.482 0 0 1 .123-2.481c5.788-9.091 11.064-24.469 3.333-46.112-11.677-32.691 2.808-94.061 12.05-111.216 11.86-22.014 23.592-30.811 23.687-30.882a6 6 0 1 0-7.027-9.726c-.563.406-13.928 10.236-27.225 34.917-8.7 16.155-22.809 69.368-16.2 107.637l-60.113 6.079a148.086 148.086 0 0 0-27.381 5.5c-23.82 7.113-53.046 11.508-53.339 11.552l-.131.02c-18.843 3.233-33.035 1.251-42.183-5.893a26.747 26.747 0 0 1-6.023-6.573 44.351 44.351 0 0 0 8.447.785q1.036 0 2.1-.043c7.064-.282 25.917-7.033 31.109-9.594 15.49-7.643 25.124-7.835 29.714-7.17a6.036 6.036 0 1 0 1.523-11.976c-7.527-.9-19.4-.078-36.547 8.384-5.063 2.5-21.922 8.192-26.279 8.366-6.8.268-12.351-1.183-16.308-4.186 2.11-4.508 6.645-12.251 13.929-15.2a16.019 16.019 0 0 0 9.071-9.5 16.349 16.349 0 0 0-1.116-13.36c-3.68-6.647-8.12-9.469-11.676-10.628l79.05-83.473a224.348 224.348 0 0 0 24.715-31.281c14.593-22.286 32.556-46.39 61.143-50.316a78.835 78.835 0 0 0 15.213-3.625c7.584-2.644 23.337-4.954 33.068-1.516a100.087 100.087 0 0 0 22.492 5.365l13.029 1.438a118.674 118.674 0 0 1 34.156 22.376zm70.552-76.98a211.273 211.273 0 0 1 32.468-4.166 72.27 72.27 0 0 1 17.318 11.822c-16.306-5.189-34.051-7.18-49.786-7.656zm-52.756 5.426c-29.023 14.179-46.888 30.92-52.829 37l-10.834-1.2a88.353 88.353 0 0 1-19.811-4.751 45.362 45.362 0 0 0-12.032-2.291c19.086-23.53 64.656-59.953 119.834-70.052 40-7.322 77.721.358 112.367 22.834-60.292-10.102-107.082 3.992-136.695 18.46z" fill="#ffffff" opacity="1" data-original="#000000" class=""></path><path d="M200.715 212.245a15.574 15.574 0 1 0 15.576 15.574 15.592 15.592 0 0 0-15.576-15.574zm0 19.148a3.574 3.574 0 1 1 3.576-3.574 3.579 3.579 0 0 1-3.576 3.574z" fill="#ffffff" opacity="1" data-original="#000000" class=""></path></g></svg>