<svg xmlns="http://www.w3.org/2000/svg" id="line" viewBox="0 0 64 64" width="300" height="300" version="1.1" xmlns:xlink="http://www.w3.org/1999/xlink" xmlns:svgjs="http://svgjs.dev/svgjs"><g width="100%" height="100%" transform="matrix(1,0,0,1,0,0)"><path d="M44,4H20a3.00328,3.00328,0,0,0-3,3V9a3.00328,3.00328,0,0,0,3,3h.29V48.29a11.71,11.71,0,1,0,23.41992,0V12H44a3.00328,3.00328,0,0,0,3-3V7A3.00328,3.00328,0,0,0,44,4ZM32,58a9.72076,9.72076,0,0,1-9.71-9.71V19.212a49.47041,49.47041,0,0,1,9.45508,1.75476A51.71927,51.71927,0,0,0,41.71,22.79358V48.29A9.72076,9.72076,0,0,1,32,58Zm9.71-37.212a49.47041,49.47041,0,0,1-9.45508-1.75476A51.71927,51.71927,0,0,0,22.29,17.20642V12H41.71ZM45,9a1.001,1.001,0,0,1-1,1H20a1.001,1.001,0,0,1-1-1V7a1.001,1.001,0,0,1,1-1H44a1.001,1.001,0,0,1,1,1Z" fill="#ffffff" fill-opacity="1" data-original-color="#000000ff" stroke="none" stroke-opacity="1"/><path d="M36,33.43994c-2.38672,0-3.84766,3.46631-3.84766,5.354a3.842,3.842,0,0,0,2.5362,3.60235,4.664,4.664,0,0,0-.7237,2.54608,4.41693,4.41693,0,0,0,.64063,2.3794,2.80033,2.80033,0,0,1-.0011,2.8374,4.42016,4.42016,0,0,0-.63953,2.37891,1.00019,1.00019,0,0,0,2-.00007c.07062-1.69177,1.075-1.76562,1.0351-3.80029.03949-2.03314-.9646-2.10321-1.03522-3.79535-.00494-1.139.52722-1.39349.82507-2.38379A3.8529,3.8529,0,0,0,39.84766,38.794C39.84766,36.90625,38.38672,33.43994,36,33.43994Zm0,7.20166A1.84975,1.84975,0,0,1,34.15234,38.794c0-1.31641,1.12207-3.354,1.84766-3.354s1.84766,2.0376,1.84766,3.354A1.84975,1.84975,0,0,1,36,40.6416Z" fill="#ffffff" fill-opacity="1" data-original-color="#000000ff" stroke="none" stroke-opacity="1"/><path d="M28,22.43994c-2.38672,0-3.84766,3.46631-3.84766,5.354a3.842,3.842,0,0,0,2.5362,3.60235c-.02967.05628-.05176.108-.085.16913a4.74074,4.74074,0,0,0,.002,4.75635A2.45853,2.45853,0,0,1,27,37.73779c-.07086,1.694-1.07507,1.76355-1.0351,3.8003a1.00016,1.00016,0,0,0,1.99994-.00007,2.49556,2.49556,0,0,1,.39551-1.42181,4.73573,4.73573,0,0,0,.001-4.752,2.48682,2.48682,0,0,1-.39649-1.42188c-.00506-1.139.5271-1.39349.825-2.38379A3.8529,3.8529,0,0,0,31.84766,27.794C31.84766,25.90625,30.38672,22.43994,28,22.43994Zm0,7.20166A1.84975,1.84975,0,0,1,26.15234,27.794c0-1.31641,1.12207-3.354,1.84766-3.354s1.84766,2.0376,1.84766,3.354A1.84975,1.84975,0,0,1,28,29.6416Z" fill="#ffffff" fill-opacity="1" data-original-color="#000000ff" stroke="none" stroke-opacity="1"/><circle cx="36" cy="28" r="1.5" fill="#ffffff" fill-opacity="1" data-original-color="#000000ff" stroke="none" stroke-opacity="1"/><circle cx="30" cy="53" r="1.5" fill="#ffffff" fill-opacity="1" data-original-color="#000000ff" stroke="none" stroke-opacity="1"/><circle cx="26.15002" cy="46.45996" r="1.5" fill="#ffffff" fill-opacity="1" data-original-color="#000000ff" stroke="none" stroke-opacity="1"/></g></svg>