<svg id="Layer_1" height="300" viewBox="0 0 100 100" width="300" xmlns="http://www.w3.org/2000/svg" version="1.1" xmlns:xlink="http://www.w3.org/1999/xlink" xmlns:svgjs="http://svgjs.dev/svgjs"><g width="100%" height="100%" transform="matrix(1,0,0,1,0,0)"><path d="m21.66 48.38c-1.7-1.7-3.84-2.49-5.94-2.3l-2.01-14.66c-.45-3.29-2.96-5.85-6.24-6.37-.98-.15-1.98.14-2.71.81-.74.67-1.13 1.63-1.07 2.63l1.95 32.25c.1 1.71.83 3.31 2.04 4.52l15.73 15.74c.39.39.67.87.83 1.39l.37 1.26-1.42.93c-.33.22-.57.56-.65.95s0 .8.21 1.13l6.01 9.17c.29.44.77.68 1.26.68.28 0 .57-.08.82-.25l19.25-12.62 19.25 12.62c.25.17.54.25.82.25.49 0 .97-.24 1.26-.68l6.01-9.17c.22-.33.3-.74.21-1.13s-.31-.73-.65-.95l-1.42-.93.37-1.26c.16-.52.44-1 .83-1.39l15.73-15.73c1.21-1.21 1.93-2.82 2.04-4.52l1.95-32.25c.06-1-.33-1.95-1.07-2.63-.74-.67-1.73-.97-2.71-.81-3.28.52-5.79 3.08-6.24 6.37l-2.01 14.66c-2.1-.19-4.24.6-5.94 2.3-1.33 1.33-2.33 2.82-3.4 4.39-1.11 1.64-2.25 3.33-3.82 4.9-1.54 1.54-3.17 2.49-4.75 3.4-1.49.86-3.02 1.75-4.36 3.08-1.92 1.92-3.29 5.71-4 8.09l-1-.66c-.69-.46-1.62-.26-2.08.43l-5.02 7.66-5.02-7.66c-.45-.69-1.38-.89-2.08-.43l-1 .66c-.71-2.38-2.08-6.17-4-8.09-1.34-1.34-2.87-2.23-4.36-3.08-1.58-.91-3.21-1.86-4.75-3.4-1.57-1.57-2.72-3.27-3.82-4.9-1.07-1.58-2.08-3.07-3.4-4.4zm42.65 17.9c1.06-1.06 2.3-1.78 3.74-2.61 1.66-.96 3.55-2.05 5.37-3.87 1.78-1.78 3.06-3.67 4.19-5.34.98-1.46 1.91-2.83 3.03-3.95 1.35-1.35 3.02-1.77 4.55-1.2.02.01.04.02.06.02.08.03.17.06.25.09.08.04.21.12.26.27.03.1.09.5-.42 1.29-1.03 1.62-3.1 4.57-4.93 7.18-3.61 5.15-3.61 5.15-3.61 5.76 0 .83.67 1.5 1.5 1.5.63 0 1.17-.39 1.39-.93.3-.51 1.83-2.68 3.18-4.61 1.84-2.63 3.93-5.61 5-7.29 1.05-1.65 1-2.94.78-3.73-.21-.73-.67-1.36-1.28-1.81l2.09-15.23c.27-1.97 1.77-3.51 3.74-3.82.11-.02.18.03.23.07.04.04.1.11.09.22l-1.95 32.25c-.06.97-.47 1.89-1.16 2.58l-15.76 15.76c-.74.74-1.28 1.66-1.58 2.66l-.12.4-12.13-7.96c.62-2.24 1.93-6.14 3.49-7.7zm-7.51 8.64 17.3 11.34-4.37 6.66-17.3-11.34zm-13.42 0 4.37 6.66-17.3 11.34-4.37-6.66zm-11.25-11.24c1.44.83 2.68 1.55 3.74 2.61 1.56 1.56 2.87 5.45 3.49 7.69l-12.13 7.96-.12-.4c-.3-1-.84-1.92-1.58-2.66l-15.74-15.74c-.69-.69-1.1-1.61-1.16-2.58l-1.95-32.25c-.01-.11.05-.18.09-.22s.12-.09.23-.07c1.97.31 3.47 1.84 3.74 3.82l2.09 15.23c-.62.45-1.07 1.08-1.28 1.81-.23.79-.28 2.08.78 3.73 1.07 1.68 3.16 4.66 5 7.29 1.35 1.93 2.88 4.1 3.18 4.61.22.55.76.93 1.39.93.83 0 1.5-.67 1.5-1.5 0-.62 0-.62-3.61-5.76-1.83-2.6-3.9-5.55-4.93-7.18-.51-.79-.45-1.19-.42-1.29.04-.15.18-.24.26-.27.08-.04.17-.06.25-.1.02-.01.04-.01.05-.02 1.52-.58 3.2-.15 4.55 1.2 1.12 1.12 2.05 2.5 3.03 3.95 1.13 1.67 2.41 3.57 4.19 5.34 1.81 1.81 3.69 2.9 5.36 3.87z" fill="#012660" fill-opacity="1" data-original-color="#000000ff" stroke="none" stroke-opacity="1"/><path d="m50 52.53c13.52 0 24.51-11 24.51-24.51s-10.99-24.52-24.51-24.52-24.51 11-24.51 24.51 10.99 24.52 24.51 24.52zm0-46.03c11.86 0 21.51 9.65 21.51 21.51s-9.65 21.52-21.51 21.52-21.51-9.65-21.51-21.51 9.65-21.52 21.51-21.52z" fill="#012660" fill-opacity="1" data-original-color="#000000ff" stroke="none" stroke-opacity="1"/><path d="m42.09 22.97c-.83 0-1.5.67-1.5 1.5s.67 1.5 1.5 1.5h6.46v.67c0 1.37-1.11 2.48-2.48 2.48h-3.98c-.61 0-1.15.37-1.39.93-.23.56-.1 1.21.33 1.63l9.27 9.27c.29.29.68.44 1.06.44s.77-.15 1.06-.44c.59-.59.59-1.54 0-2.12l-6.71-6.71h.36c3.02 0 5.48-2.46 5.48-5.48v-.67h6.36c.83 0 1.5-.67 1.5-1.5s-.67-1.5-1.5-1.5h-6.36v-2.85h6.36c.83 0 1.5-.67 1.5-1.5s-.67-1.5-1.5-1.5h-15.82c-.83 0-1.5.67-1.5 1.5s.67 1.5 1.5 1.5h6.46v2.85z" fill="#012660" fill-opacity="1" data-original-color="#000000ff" stroke="none" stroke-opacity="1"/><path d="m48.77 46.58c.42.03.84.04 1.25.04 4.51 0 8.81-1.61 12.23-4.61 3.74-3.27 5.98-7.81 6.31-12.77s-1.3-9.75-4.57-13.49-7.81-5.98-12.77-6.31-9.75 1.3-13.49 4.57-5.98 7.81-6.31 12.77c-.66 10.24 7.12 19.12 17.35 19.8zm-14.34-19.6c.54-8.24 7.42-14.58 15.56-14.58.34 0 .69.01 1.04.03 8.59.57 15.11 8.02 14.54 16.6-.57 8.59-8.01 15.11-16.6 14.54-8.59-.55-15.11-8-14.54-16.59z" fill="#012660" fill-opacity="1" data-original-color="#000000ff" stroke="none" stroke-opacity="1"/></g></svg>