<svg xmlns="http://www.w3.org/2000/svg" xmlns:xlink="http://www.w3.org/1999/xlink" version="1.1" id="Capa_1" x="0px" y="0px" viewBox="0 0 512 512" style="enable-background:new 0 0 512 512;" xml:space="preserve" width="300" height="300" xmlns:svgjs="http://svgjs.dev/svgjs"><g width="100%" height="100%" transform="matrix(1,0,0,1,0,0)"><g>
	<g>
		<path d="M502.686,286.175l-7.713-5.785c-10.744-8.058-17.877-19.791-20.085-33.038c-2.972-17.834-13.014-33.875-27.664-44.387    c5.467-18.007,15.279-34.436,28.627-47.782l14.795-14.795H470.71c-18.029,0-35.46,6.505-49.081,18.318    c-8.483,7.357-15.134,16.47-19.562,26.607c-5.916-6.973-13.508-12.41-22.195-15.795V99.097c0-9.107-7.41-16.516-16.516-16.516    h-33.032c-9.107,0-16.516,7.41-16.516,16.516v147.052c-4.749,1.053-9.627,1.593-14.562,1.593h-1.955v-99.097    c0-9.107-7.41-16.516-16.516-16.516h-33.032c-9.107,0-16.516,7.41-16.516,16.516v122.452c-5.164,3.113-10.728,5.507-16.516,7.139    v-80.042c0-9.107-7.41-16.516-16.516-16.516h-33.032c-9.107,0-16.516,7.41-16.516,16.516v82.581h-16.516v-33.032    c0-9.107-7.41-16.516-16.516-16.516H82.581c-9.107,0-16.516,7.41-16.516,16.516v61.752    c-29.775,10.874-49.548,38.969-49.548,70.965v37.283l-5.338,5.338C3.97,430.287,0,439.871,0,450.065    c0,10.194,3.97,19.777,11.178,26.985l13.596,13.596L38.37,477.05c7.208-7.208,11.178-16.792,11.178-26.985    c0-10.194-3.97-19.777-11.178-26.985l-5.338-5.338v-37.283c0-17.248,7.356-33.041,19.551-43.972    c-1.961,6.788-3.035,13.951-3.035,21.364c0,10.229,1.995,20.202,5.929,29.644l34.542,82.904l-5.205,10.408    c-1.463,2.924-2.236,6.199-2.236,9.468v0.554c0,11.674,9.498,21.172,21.172,21.172h20.12h3.603h32.583    c11.922,0,21.62-9.699,21.62-21.62c0-3.339-0.79-6.683-2.282-9.668l-5.779-11.558l6.151-61.505    c10.883,1.982,21.59,4.937,32.043,8.858c22.85,8.568,46.808,12.913,71.21,12.913h10.475c2.611,4.515,5.355,8.969,8.271,13.344    l19.027,28.54l-4.704,9.408c-1.494,2.986-2.282,6.33-2.282,9.669c0,11.922,9.699,21.62,21.62,21.62h19.67h3.155h33.032    c11.922,0,21.62-9.699,21.62-21.62c0-3.339-0.79-6.683-2.282-9.668l-5.976-11.953v-84.904    c6.536-9.188,11.011-19.819,12.893-31.108c2.012-12.074,7.651-23.032,16.307-31.688l1.065-1.065    c0.5,0.113,0.999,0.228,1.503,0.329l47.734,9.547c1.5,0.3,3.037,0.452,4.567,0.452c12.84,0,23.287-10.446,23.287-23.287v-2.232    C512,297.514,508.518,290.551,502.686,286.175z M26.692,465.372l-1.918,1.918l-1.918-1.918c-4.089-4.089-6.34-9.525-6.34-15.307    c0-5.783,2.251-11.219,6.34-15.307l1.918-1.918l1.918,1.918c4.089,4.089,6.34,9.525,6.34,15.307    C33.032,455.847,30.781,461.283,26.692,465.372z M449.544,160.922c-7.966,11.355-14.099,23.935-18.144,37.272h-16.507    C420.183,181.042,433.172,167.364,449.544,160.922z M330.323,99.097h33.032v65.811l-8.258-2.065v25.143    c0,10.911,2.107,21.832,6.134,31.978l-24.759,16.506c-1.993,1.329-4.046,2.54-6.149,3.641L330.323,99.097L330.323,99.097z     M280.774,148.645v99.705c-11.666,1.405-22.951,5.265-33.032,11.289V148.645H280.774z M165.161,198.194h33.032v82.545    c-0.554,0.014-1.109,0.036-1.664,0.036h-31.368V198.194z M115.613,247.742v33.831c-12.153,1.747-23.392,6.34-33.032,13.079v-46.91    H115.613z M164.622,488.099c0.353,0.704,0.539,1.494,0.539,2.281c0,2.814-2.29,5.103-5.103,5.103h-11.944    c0.339-1.5,0.533-3.054,0.533-4.655c0-3.864-1.057-7.654-3.058-10.961l-6.234-10.301l7.45-64.917    c5.558,0.011,11.091,0.268,16.587,0.769l-6.685,66.847L164.622,488.099z M391.284,495.484h-12.046    c0.398-1.64,0.634-3.344,0.634-5.103c0-3.339-0.79-6.683-2.282-9.668l-6.089-12.179l-3.206-54.502l16.908-11.272    c0.995-0.664,1.969-1.355,2.927-2.063v71.965l7.72,15.439c0.352,0.704,0.538,1.494,0.538,2.281    C396.387,493.194,394.098,495.484,391.284,495.484z M495.484,307.036c0,3.733-3.037,6.771-6.771,6.771    c-0.445,0-0.891-0.044-1.327-0.131l-47.734-9.547c-17.17-3.433-31.007-16.629-35.254-33.614l-16.023,4.006    c4.191,16.762,15.238,30.81,29.897,39.064c-8.907,10.361-14.76,22.853-17.026,36.45c-2.644,15.858-11.83,30.066-25.206,38.984    l-8.871,5.914l-2.457-41.775c-1.003-17.057-8.211-33.106-20.292-45.187l-11.678,11.678c9.219,9.219,14.717,21.464,15.483,34.478    l6.986,118.762l7.606,15.212c0.352,0.704,0.538,1.494,0.538,2.281c0,2.815-2.29,5.103-5.103,5.103h-3.156h-19.671    c-2.815,0-5.103-2.29-5.103-5.103c0-0.788,0.186-1.577,0.539-2.282l8.99-17.981l-24.344-36.515    c-17.836-26.754-29.56-56.403-34.847-88.121l-16.291,2.716c3.774,22.641,10.622,44.291,20.406,64.707h-1.757    c-22.414,0-44.422-3.991-65.411-11.862c-22.186-8.319-45.419-12.644-69.087-12.889c0.078-1.501,0.123-3.003,0.123-4.498v-1.834    c0-13.356-3.158-26.73-9.13-38.675l-14.773,7.386c4.832,9.664,7.386,20.483,7.386,31.289v1.834c0,2.655-0.154,5.339-0.456,7.977    l-9.371,81.657l9.154,15.129c0.44,0.728,0.673,1.561,0.673,2.41c0,2.567-2.088,4.655-4.655,4.655h-3.599h-20.119    c-2.567,0-4.655-2.088-4.655-4.655v-0.554c0-0.718,0.17-1.439,0.491-2.082l8.585-17.17l-37.45-89.881    c-3.091-7.422-4.659-15.258-4.659-23.294c0-33.393,27.167-60.559,60.559-60.559h69.906c18.917,0,37.471-6.508,52.243-18.326    c11.853-9.483,26.744-14.707,41.924-14.707h8.547c16.565,0,32.606-4.857,46.389-14.046l36.627-24.417l-3.261-6.52    c-4.832-9.664-7.386-20.483-7.386-31.289v-3.898c11.893,3.83,21.207,13.003,25.198,24.975l1.882,5.646h36.484l0.98,0.653    c11.908,7.938,20.087,20.587,22.439,34.705c2.909,17.457,12.309,32.918,26.467,43.535l7.713,5.785    c1.696,1.272,2.709,3.297,2.709,5.416L495.484,307.036L495.484,307.036z" fill="#012660" fill-opacity="1" data-original-color="#000000ff" stroke="none" stroke-opacity="1"/>
		<circle cx="421.161" cy="239.484" r="8.258" fill="#012660" fill-opacity="1" data-original-color="#000000ff" stroke="none" stroke-opacity="1"/>
		<path d="M13.465,205.723c132.572-21.211,253.21-89.45,339.69-192.147L364.588,0H256v16.516h72.698    c-82.93,92.098-195.119,153.263-317.843,172.899l-3.902,0.625l2.61,16.309L13.465,205.723z" fill="#012660" fill-opacity="1" data-original-color="#000000ff" stroke="none" stroke-opacity="1"/>
	</g>
</g></g></svg>